<?xml version="1.0" encoding="utf-8"?>
<svg version="1.1" xmlns:xlink="http://www.w3.org/1999/xlink" width="390px" height="99px" xmlns="http://www.w3.org/2000/svg">
  <g transform="matrix(1 0 0 1 -829 -227 )">
    <path d="M 829 227  L 1219 227  L 1219 326  L 829 326  L 829 227  " fill-rule="nonzero" fill="#cccccc" stroke="none" />
    <path d="M 836 234  L 1212 234  L 1212 319  L 836 319  L 836 234  " fill-rule="nonzero" fill="#ffffff" stroke="none" />
    <path d="M 1039.225 256.7  C 1035.067 256.7  1031.8 253.433  1031.8 249.275  C 1031.8 245.117  1035.067 241.85  1039.225 241.85  C 1043.383 241.85  1046.65 245.117  1046.65 249.275  C 1046.65 253.433  1043.383 256.7  1039.225 256.7  " fill-rule="nonzero" fill="#cccccc" stroke="none" />
    <path d="M 839 317  L 839 273  L 931.75 253  L 1061.6 304.815384615385  L 1135.8 265  L 1210 304.815384615385  L 1210 317  L 839 317  " fill-rule="nonzero" fill="#169bd5" stroke="none" />
  </g>
</svg>