<?xml version="1.0" encoding="utf-8"?>
<svg version="1.1" xmlns:xlink="http://www.w3.org/1999/xlink" width="12px" height="12px" viewBox="244 1030  12 12" xmlns="http://www.w3.org/2000/svg">
  <path d="M 250 1030  C 253.36 1030  256 1032.64  256 1036  C 256 1039.36  253.36 1042  250 1042  C 246.64 1042  244 1039.36  244 1036  C 244 1032.64  246.64 1030  250 1030  Z " fill-rule="nonzero" fill="#f0f0f0" stroke="none" />
  <path d="M 250 1030.5  C 253.08 1030.5  255.5 1032.92  255.5 1036  C 255.5 1039.08  253.08 1041.5  250 1041.5  C 246.92 1041.5  244.5 1039.08  244.5 1036  C 244.5 1032.92  246.92 1030.5  250 1030.5  Z " stroke-width="1" stroke="#797979" fill="none" />
  <path d="M 250 1039  C 248.32 1039  247 1037.68  247 1036  C 247 1034.32  248.32 1033  250 1033  C 251.68 1033  253 1034.32  253 1036  C 253 1037.68  251.68 1039  250 1039  " fill-rule="nonzero" fill="#797979" stroke="none" />
</svg>