<?xml version="1.0" encoding="utf-8"?>
<svg version="1.1" xmlns:xlink="http://www.w3.org/1999/xlink" width="12px" height="12px" viewBox="316 1076  12 12" xmlns="http://www.w3.org/2000/svg">
  <path d="M 322 1076  C 325.36 1076  328 1078.64  328 1082  C 328 1085.36  325.36 1088  322 1088  C 318.64 1088  316 1085.36  316 1082  C 316 1078.64  318.64 1076  322 1076  Z " fill-rule="nonzero" fill="#ffffff" stroke="none" />
  <path d="M 322 1076.5  C 325.08 1076.5  327.5 1078.92  327.5 1082  C 327.5 1085.08  325.08 1087.5  322 1087.5  C 318.92 1087.5  316.5 1085.08  316.5 1082  C 316.5 1078.92  318.92 1076.5  322 1076.5  Z " stroke-width="1" stroke="#797979" fill="none" />
  <path d="M 322 1085  C 320.32 1085  319 1083.68  319 1082  C 319 1080.32  320.32 1079  322 1079  C 323.68 1079  325 1080.32  325 1082  C 325 1083.68  323.68 1085  322 1085  " fill-rule="nonzero" fill="#797979" stroke="none" />
</svg>