<?xml version="1.0" encoding="utf-8"?>
<svg version="1.1" xmlns:xlink="http://www.w3.org/1999/xlink" width="12px" height="12px" viewBox="316 1030  12 12" xmlns="http://www.w3.org/2000/svg">
  <path d="M 322 1030  C 325.36 1030  328 1032.64  328 1036  C 328 1039.36  325.36 1042  322 1042  C 318.64 1042  316 1039.36  316 1036  C 316 1032.64  318.64 1030  322 1030  Z " fill-rule="nonzero" fill="#f0f0f0" stroke="none" />
  <path d="M 322 1030.5  C 325.08 1030.5  327.5 1032.92  327.5 1036  C 327.5 1039.08  325.08 1041.5  322 1041.5  C 318.92 1041.5  316.5 1039.08  316.5 1036  C 316.5 1032.92  318.92 1030.5  322 1030.5  Z " stroke-width="1" stroke="#797979" fill="none" />
  <path d="M 322 1039  C 320.32 1039  319 1037.68  319 1036  C 319 1034.32  320.32 1033  322 1033  C 323.68 1033  325 1034.32  325 1036  C 325 1037.68  323.68 1039  322 1039  " fill-rule="nonzero" fill="#797979" stroke="none" />
</svg>