<?xml version="1.0" encoding="utf-8"?>
<svg version="1.1" xmlns:xlink="http://www.w3.org/1999/xlink" width="12px" height="12px" viewBox="244 1076  12 12" xmlns="http://www.w3.org/2000/svg">
  <path d="M 250 1076  C 253.36 1076  256 1078.64  256 1082  C 256 1085.36  253.36 1088  250 1088  C 246.64 1088  244 1085.36  244 1082  C 244 1078.64  246.64 1076  250 1076  Z " fill-rule="nonzero" fill="#ffffff" stroke="none" />
  <path d="M 250 1076.5  C 253.08 1076.5  255.5 1078.92  255.5 1082  C 255.5 1085.08  253.08 1087.5  250 1087.5  C 246.92 1087.5  244.5 1085.08  244.5 1082  C 244.5 1078.92  246.92 1076.5  250 1076.5  Z " stroke-width="1" stroke="#797979" fill="none" />
  <path d="M 250 1085  C 248.32 1085  247 1083.68  247 1082  C 247 1080.32  248.32 1079  250 1079  C 251.68 1079  253 1080.32  253 1082  C 253 1083.68  251.68 1085  250 1085  " fill-rule="nonzero" fill="#797979" stroke="none" />
</svg>