<?xml version="1.0" encoding="utf-8"?>
<svg version="1.1" xmlns:xlink="http://www.w3.org/1999/xlink" width="15px" height="15px" xmlns="http://www.w3.org/2000/svg">
  <g transform="matrix(1 0 0 1 -603 -365 )">
    <path d="M 610.5 365  C 614.7 365  618 368.3  618 372.5  C 618 376.7  614.7 380  610.5 380  C 606.3 380  603 376.7  603 372.5  C 603 368.3  606.3 365  610.5 365  Z " fill-rule="nonzero" fill="#aaaaaa" stroke="none" />
    <path d="M 610.5 365.5  C 614.42 365.5  617.5 368.58  617.5 372.5  C 617.5 376.42  614.42 379.5  610.5 379.5  C 606.58 379.5  603.5 376.42  603.5 372.5  C 603.5 368.58  606.58 365.5  610.5 365.5  Z " stroke-width="1" stroke="#797979" fill="none" />
  </g>
</svg>