<?xml version="1.0" encoding="utf-8"?>
<svg version="1.1" xmlns:xlink="http://www.w3.org/1999/xlink" width="15px" height="15px" xmlns="http://www.w3.org/2000/svg">
  <g transform="matrix(1 0 0 1 -603 -311 )">
    <path d="M 610.5 311  C 614.7 311  618 314.3  618 318.5  C 618 322.7  614.7 326  610.5 326  C 606.3 326  603 322.7  603 318.5  C 603 314.3  606.3 311  610.5 311  Z " fill-rule="nonzero" fill="#f59a23" stroke="none" />
    <path d="M 610.5 311.5  C 614.42 311.5  617.5 314.58  617.5 318.5  C 617.5 322.42  614.42 325.5  610.5 325.5  C 606.58 325.5  603.5 322.42  603.5 318.5  C 603.5 314.58  606.58 311.5  610.5 311.5  Z " stroke-width="1" stroke="#797979" fill="none" />
  </g>
</svg>