<?xml version="1.0" encoding="utf-8"?>
<svg version="1.1" xmlns:xlink="http://www.w3.org/1999/xlink" width="85px" height="25px" xmlns="http://www.w3.org/2000/svg">
  <defs>
    <mask fill="white" id="clip2">
      <path d="M 0 20  L 0 5  C 0 2.20000000000005  1.3262411347518 0  3.01418439716312 0  L 81.9858156028369 0  C 83.6737588652482 0  85 2.20000000000005  85 5  L 85 20  C 85 22.8  83.6737588652482 25  81.9858156028369 25  L 47.653883197617 25  L 3.01418439716312 25  C 1.3262411347518 25  0 22.8  0 20  Z " fill-rule="evenodd" />
    </mask>
  </defs>
  <g transform="matrix(1 0 0 1 -886 -660 )">
    <path d="M 0 20  L 0 5  C 0 2.20000000000005  1.3262411347518 0  3.01418439716312 0  L 81.9858156028369 0  C 83.6737588652482 0  85 2.20000000000005  85 5  L 85 20  C 85 22.8  83.6737588652482 25  81.9858156028369 25  L 47.653883197617 25  L 3.01418439716312 25  C 1.3262411347518 25  0 22.8  0 20  Z " fill-rule="nonzero" fill="#ffffff" stroke="none" transform="matrix(1 0 0 1 886 660 )" />
    <path d="M 0 20  L 0 5  C 0 2.20000000000005  1.3262411347518 0  3.01418439716312 0  L 81.9858156028369 0  C 83.6737588652482 0  85 2.20000000000005  85 5  L 85 20  C 85 22.8  83.6737588652482 25  81.9858156028369 25  L 47.653883197617 25  L 3.01418439716312 25  C 1.3262411347518 25  0 22.8  0 20  Z " stroke-width="2" stroke="#797979" fill="none" transform="matrix(1 0 0 1 886 660 )" mask="url(#clip2)" />
  </g>
</svg>