<?xml version="1.0" encoding="utf-8"?>
<svg version="1.1" xmlns:xlink="http://www.w3.org/1999/xlink" width="40px" height="40px" xmlns="http://www.w3.org/2000/svg">
  <g transform="matrix(1 0 0 1 -592 -190 )">
    <path d="M 612 190  C 623.2 190  632 198.8  632 210  C 632 221.2  623.2 230  612 230  C 600.8 230  592 221.2  592 210  C 592 198.8  600.8 190  612 190  Z " fill-rule="nonzero" fill="#ffffff" stroke="none" />
    <path d="M 612 190.5  C 622.92 190.5  631.5 199.08  631.5 210  C 631.5 220.92  622.92 229.5  612 229.5  C 601.08 229.5  592.5 220.92  592.5 210  C 592.5 199.08  601.08 190.5  612 190.5  Z " stroke-width="1" stroke="#aaaaaa" fill="none" />
  </g>
</svg>