<?xml version="1.0" encoding="utf-8"?>
<svg version="1.1" xmlns:xlink="http://www.w3.org/1999/xlink" width="40px" height="40px" xmlns="http://www.w3.org/2000/svg">
  <g transform="matrix(1 0 0 1 -699 -190 )">
    <path d="M 719 190  C 730.2 190  739 198.8  739 210  C 739 221.2  730.2 230  719 230  C 707.8 230  699 221.2  699 210  C 699 198.8  707.8 190  719 190  Z " fill-rule="nonzero" fill="#ffffff" stroke="none" />
    <path d="M 719 190.5  C 729.92 190.5  738.5 199.08  738.5 210  C 738.5 220.92  729.92 229.5  719 229.5  C 708.08 229.5  699.5 220.92  699.5 210  C 699.5 199.08  708.08 190.5  719 190.5  Z " stroke-width="1" stroke="#ffffff" fill="none" />
  </g>
</svg>