<?xml version="1.0" encoding="utf-8"?>
<svg version="1.1" xmlns:xlink="http://www.w3.org/1999/xlink" width="40px" height="40px" xmlns="http://www.w3.org/2000/svg">
  <g transform="matrix(1 0 0 1 -377 -190 )">
    <path d="M 397 190  C 408.2 190  417 198.8  417 210  C 417 221.2  408.2 230  397 230  C 385.8 230  377 221.2  377 210  C 377 198.8  385.8 190  397 190  Z " fill-rule="nonzero" fill="#d9001b" stroke="none" />
    <path d="M 397 190.5  C 407.92 190.5  416.5 199.08  416.5 210  C 416.5 220.92  407.92 229.5  397 229.5  C 386.08 229.5  377.5 220.92  377.5 210  C 377.5 199.08  386.08 190.5  397 190.5  Z " stroke-width="1" stroke="#caf982" fill="none" />
  </g>
</svg>