<?xml version="1.0" encoding="utf-8"?>
<svg version="1.1" xmlns:xlink="http://www.w3.org/1999/xlink" width="40px" height="40px" xmlns="http://www.w3.org/2000/svg">
  <g transform="matrix(1 0 0 1 -806 -190 )">
    <path d="M 826 190  C 837.2 190  846 198.8  846 210  C 846 221.2  837.2 230  826 230  C 814.8 230  806 221.2  806 210  C 806 198.8  814.8 190  826 190  Z " fill-rule="nonzero" fill="#ffffff" stroke="none" />
    <path d="M 826 190.5  C 836.92 190.5  845.5 199.08  845.5 210  C 845.5 220.92  836.92 229.5  826 229.5  C 815.08 229.5  806.5 220.92  806.5 210  C 806.5 199.08  815.08 190.5  826 190.5  Z " stroke-width="1" stroke="#797979" fill="none" />
  </g>
</svg>