<?xml version="1.0" encoding="utf-8"?>
<svg version="1.1" xmlns:xlink="http://www.w3.org/1999/xlink" width="12px" height="12px" viewBox="220 629  12 12" xmlns="http://www.w3.org/2000/svg">
  <path d="M 226 629  C 229.36 629  232 631.64  232 635  C 232 638.36  229.36 641  226 641  C 222.64 641  220 638.36  220 635  C 220 631.64  222.64 629  226 629  Z " fill-rule="nonzero" fill="#f0f0f0" stroke="none" />
  <path d="M 226 629.5  C 229.08 629.5  231.5 631.92  231.5 635  C 231.5 638.08  229.08 640.5  226 640.5  C 222.92 640.5  220.5 638.08  220.5 635  C 220.5 631.92  222.92 629.5  226 629.5  Z " stroke-width="1" stroke="#797979" fill="none" />
  <path d="M 226 638  C 224.32 638  223 636.68  223 635  C 223 633.32  224.32 632  226 632  C 227.68 632  229 633.32  229 635  C 229 636.68  227.68 638  226 638  " fill-rule="nonzero" fill="#797979" stroke="none" />
</svg>