<?xml version="1.0" encoding="utf-8"?>
<svg version="1.1" xmlns:xlink="http://www.w3.org/1999/xlink" width="12px" height="12px" viewBox="292 629  12 12" xmlns="http://www.w3.org/2000/svg">
  <path d="M 298 629  C 301.36 629  304 631.64  304 635  C 304 638.36  301.36 641  298 641  C 294.64 641  292 638.36  292 635  C 292 631.64  294.64 629  298 629  Z " fill-rule="nonzero" fill="#f0f0f0" stroke="none" />
  <path d="M 298 629.5  C 301.08 629.5  303.5 631.92  303.5 635  C 303.5 638.08  301.08 640.5  298 640.5  C 294.92 640.5  292.5 638.08  292.5 635  C 292.5 631.92  294.92 629.5  298 629.5  Z " stroke-width="1" stroke="#797979" fill="none" />
  <path d="M 298 638  C 296.32 638  295 636.68  295 635  C 295 633.32  296.32 632  298 632  C 299.68 632  301 633.32  301 635  C 301 636.68  299.68 638  298 638  " fill-rule="nonzero" fill="#797979" stroke="none" />
</svg>