<?xml version="1.0" encoding="utf-8"?>
<svg version="1.1" xmlns:xlink="http://www.w3.org/1999/xlink" width="40px" height="40px" xmlns="http://www.w3.org/2000/svg">
  <g transform="matrix(1 0 0 1 -27 -10 )">
    <path d="M 47 10  C 58.2 10  67 18.8  67 30  C 67 41.2  58.2 50  47 50  C 35.8 50  27 41.2  27 30  C 27 18.8  35.8 10  47 10  Z " fill-rule="nonzero" fill="#ffffff" stroke="none" />
    <path d="M 47 10.5  C 57.92 10.5  66.5 19.08  66.5 30  C 66.5 40.92  57.92 49.5  47 49.5  C 36.08 49.5  27.5 40.92  27.5 30  C 27.5 19.08  36.08 10.5  47 10.5  Z " stroke-width="1" stroke="#d7d7d7" fill="none" />
  </g>
</svg>