<?xml version="1.0" encoding="utf-8"?>
<svg version="1.1" xmlns:xlink="http://www.w3.org/1999/xlink" width="50px" height="50px" xmlns="http://www.w3.org/2000/svg">
  <g transform="matrix(1 0 0 1 -86 -15 )">
    <path d="M 111 15  C 125 15  136 26  136 40  C 136 54  125 65  111 65  C 97 65  86 54  86 40  C 86 26  97 15  111 15  Z " fill-rule="nonzero" fill="#ffffff" stroke="none" />
    <path d="M 111 15.5  C 124.72 15.5  135.5 26.28  135.5 40  C 135.5 53.72  124.72 64.5  111 64.5  C 97.28 64.5  86.5 53.72  86.5 40  C 86.5 26.28  97.28 15.5  111 15.5  Z " stroke-width="1" stroke="#797979" fill="none" />
  </g>
</svg>