<?xml version="1.0" encoding="utf-8"?>
<svg version="1.1" xmlns:xlink="http://www.w3.org/1999/xlink" width="50px" height="50px" xmlns="http://www.w3.org/2000/svg">
  <g transform="matrix(1 0 0 1 -444 -656 )">
    <path d="M 474.5 656.5  L 463.5 656.5  L 463.5 675.5  L 444.5 675.5  L 444.5 686.5  L 463.5 686.5  L 463.5 705.5  L 474.5 705.5  L 474.5 686.5  L 493.5 686.5  L 493.5 675.5  L 474.5 675.5  L 474.5 656.5  Z " fill-rule="nonzero" fill="#ffffff" stroke="none" />
    <path d="M 474.5 656.5  L 463.5 656.5  L 463.5 675.5  L 444.5 675.5  L 444.5 686.5  L 463.5 686.5  L 463.5 705.5  L 474.5 705.5  L 474.5 686.5  L 493.5 686.5  L 493.5 675.5  L 474.5 675.5  L 474.5 656.5  Z " stroke-width="1" stroke="#797979" fill="none" />
  </g>
</svg>