<?xml version="1.0" encoding="utf-8"?>
<svg version="1.1" xmlns:xlink="http://www.w3.org/1999/xlink" width="25px" height="25px" xmlns="http://www.w3.org/2000/svg">
  <g transform="matrix(1 0 0 1 -708 -220 )">
    <path d="M 720.5 220  C 727.5 220  733 225.5  733 232.5  C 733 239.5  727.5 245  720.5 245  C 713.5 245  708 239.5  708 232.5  C 708 225.5  713.5 220  720.5 220  Z " fill-rule="nonzero" fill="#199ed8" stroke="none" />
    <path d="M 720.5 220.5  C 727.22 220.5  732.5 225.78  732.5 232.5  C 732.5 239.22  727.22 244.5  720.5 244.5  C 713.78 244.5  708.5 239.22  708.5 232.5  C 708.5 225.78  713.78 220.5  720.5 220.5  Z " stroke-width="1" stroke="#797979" fill="none" />
  </g>
</svg>