<?xml version="1.0" encoding="utf-8"?>
<svg version="1.1" xmlns:xlink="http://www.w3.org/1999/xlink" width="12px" height="12px" viewBox="236 763  12 12" xmlns="http://www.w3.org/2000/svg">
  <path d="M 242 763  C 245.36 763  248 765.64  248 769  C 248 772.36  245.36 775  242 775  C 238.64 775  236 772.36  236 769  C 236 765.64  238.64 763  242 763  Z " fill-rule="nonzero" fill="#f0f0f0" stroke="none" />
  <path d="M 242 763.5  C 245.08 763.5  247.5 765.92  247.5 769  C 247.5 772.08  245.08 774.5  242 774.5  C 238.92 774.5  236.5 772.08  236.5 769  C 236.5 765.92  238.92 763.5  242 763.5  Z " stroke-width="1" stroke="#797979" fill="none" />
  <path d="M 242 772  C 240.32 772  239 770.68  239 769  C 239 767.32  240.32 766  242 766  C 243.68 766  245 767.32  245 769  C 245 770.68  243.68 772  242 772  " fill-rule="nonzero" fill="#797979" stroke="none" />
</svg>