<?xml version="1.0" encoding="utf-8"?>
<svg version="1.1" xmlns:xlink="http://www.w3.org/1999/xlink" width="12px" height="12px" viewBox="308 763  12 12" xmlns="http://www.w3.org/2000/svg">
  <path d="M 314 763  C 317.36 763  320 765.64  320 769  C 320 772.36  317.36 775  314 775  C 310.64 775  308 772.36  308 769  C 308 765.64  310.64 763  314 763  Z " fill-rule="nonzero" fill="#f0f0f0" stroke="none" />
  <path d="M 314 763.5  C 317.08 763.5  319.5 765.92  319.5 769  C 319.5 772.08  317.08 774.5  314 774.5  C 310.92 774.5  308.5 772.08  308.5 769  C 308.5 765.92  310.92 763.5  314 763.5  Z " stroke-width="1" stroke="#797979" fill="none" />
  <path d="M 314 772  C 312.32 772  311 770.68  311 769  C 311 767.32  312.32 766  314 766  C 315.68 766  317 767.32  317 769  C 317 770.68  315.68 772  314 772  " fill-rule="nonzero" fill="#797979" stroke="none" />
</svg>