<?xml version="1.0" encoding="utf-8"?>
<svg version="1.1" xmlns:xlink="http://www.w3.org/1999/xlink" width="12px" height="12px" viewBox="308 809  12 12" xmlns="http://www.w3.org/2000/svg">
  <path d="M 314 809  C 317.36 809  320 811.64  320 815  C 320 818.36  317.36 821  314 821  C 310.64 821  308 818.36  308 815  C 308 811.64  310.64 809  314 809  Z " fill-rule="nonzero" fill="#ffffff" stroke="none" />
  <path d="M 314 809.5  C 317.08 809.5  319.5 811.92  319.5 815  C 319.5 818.08  317.08 820.5  314 820.5  C 310.92 820.5  308.5 818.08  308.5 815  C 308.5 811.92  310.92 809.5  314 809.5  Z " stroke-width="1" stroke="#797979" fill="none" />
  <path d="M 314 818  C 312.32 818  311 816.68  311 815  C 311 813.32  312.32 812  314 812  C 315.68 812  317 813.32  317 815  C 317 816.68  315.68 818  314 818  " fill-rule="nonzero" fill="#797979" stroke="none" />
</svg>