<?xml version="1.0" encoding="utf-8"?>
<svg version="1.1" xmlns:xlink="http://www.w3.org/1999/xlink" width="12px" height="12px" viewBox="220 1361  12 12" xmlns="http://www.w3.org/2000/svg">
  <path d="M 226 1361  C 229.36 1361  232 1363.64  232 1367  C 232 1370.36  229.36 1373  226 1373  C 222.64 1373  220 1370.36  220 1367  C 220 1363.64  222.64 1361  226 1361  Z " fill-rule="nonzero" fill="#f0f0f0" stroke="none" />
  <path d="M 226 1361.5  C 229.08 1361.5  231.5 1363.92  231.5 1367  C 231.5 1370.08  229.08 1372.5  226 1372.5  C 222.92 1372.5  220.5 1370.08  220.5 1367  C 220.5 1363.92  222.92 1361.5  226 1361.5  Z " stroke-width="1" stroke="#797979" fill="none" />
  <path d="M 226 1370  C 224.32 1370  223 1368.68  223 1367  C 223 1365.32  224.32 1364  226 1364  C 227.68 1364  229 1365.32  229 1367  C 229 1368.68  227.68 1370  226 1370  " fill-rule="nonzero" fill="#797979" stroke="none" />
</svg>