<?xml version="1.0" encoding="utf-8"?>
<svg version="1.1" xmlns:xlink="http://www.w3.org/1999/xlink" width="12px" height="12px" viewBox="292 1361  12 12" xmlns="http://www.w3.org/2000/svg">
  <path d="M 298 1361  C 301.36 1361  304 1363.64  304 1367  C 304 1370.36  301.36 1373  298 1373  C 294.64 1373  292 1370.36  292 1367  C 292 1363.64  294.64 1361  298 1361  Z " fill-rule="nonzero" fill="#ffffff" stroke="none" />
  <path d="M 298 1361.5  C 301.08 1361.5  303.5 1363.92  303.5 1367  C 303.5 1370.08  301.08 1372.5  298 1372.5  C 294.92 1372.5  292.5 1370.08  292.5 1367  C 292.5 1363.92  294.92 1361.5  298 1361.5  Z " stroke-width="1" stroke="#797979" fill="none" />
  <path d="M 298 1370  C 296.32 1370  295 1368.68  295 1367  C 295 1365.32  296.32 1364  298 1364  C 299.68 1364  301 1365.32  301 1367  C 301 1368.68  299.68 1370  298 1370  " fill-rule="nonzero" fill="#797979" stroke="none" />
</svg>