<?xml version="1.0" encoding="utf-8"?>
<svg version="1.1" xmlns:xlink="http://www.w3.org/1999/xlink" width="12px" height="12px" viewBox="292 1315  12 12" xmlns="http://www.w3.org/2000/svg">
  <path d="M 298 1315  C 301.36 1315  304 1317.64  304 1321  C 304 1324.36  301.36 1327  298 1327  C 294.64 1327  292 1324.36  292 1321  C 292 1317.64  294.64 1315  298 1315  Z " fill-rule="nonzero" fill="#f0f0f0" stroke="none" />
  <path d="M 298 1315.5  C 301.08 1315.5  303.5 1317.92  303.5 1321  C 303.5 1324.08  301.08 1326.5  298 1326.5  C 294.92 1326.5  292.5 1324.08  292.5 1321  C 292.5 1317.92  294.92 1315.5  298 1315.5  Z " stroke-width="1" stroke="#797979" fill="none" />
  <path d="M 298 1324  C 296.32 1324  295 1322.68  295 1321  C 295 1319.32  296.32 1318  298 1318  C 299.68 1318  301 1319.32  301 1321  C 301 1322.68  299.68 1324  298 1324  " fill-rule="nonzero" fill="#797979" stroke="none" />
</svg>