<?xml version="1.0" encoding="utf-8"?>
<svg version="1.1" xmlns:xlink="http://www.w3.org/1999/xlink" width="90px" height="26px" xmlns="http://www.w3.org/2000/svg">
  <defs>
    <mask fill="white" id="clip7">
      <path d="M 0 20.8  L 0 5.2  C 0 2.28800000000005  1.40425531914897 0  3.19148936170213 0  L 86.8085106382979 0  C 88.595744680851 0  90 2.28800000000005  90 5.2  L 90 20.8  C 90 23.712  88.595744680851 26  86.8085106382979 26  L 50.4570527974768 26  L 3.19148936170213 26  C 1.40425531914897 26  0 23.712  0 20.8  Z " fill-rule="evenodd" />
    </mask>
  </defs>
  <g transform="matrix(1 0 0 1 -899 -716 )">
    <path d="M 0 20.8  L 0 5.2  C 0 2.28800000000005  1.40425531914897 0  3.19148936170213 0  L 86.8085106382979 0  C 88.595744680851 0  90 2.28800000000005  90 5.2  L 90 20.8  C 90 23.712  88.595744680851 26  86.8085106382979 26  L 50.4570527974768 26  L 3.19148936170213 26  C 1.40425531914897 26  0 23.712  0 20.8  Z " fill-rule="nonzero" fill="#ffffff" stroke="none" transform="matrix(1 0 0 1 899 716 )" />
    <path d="M 0 20.8  L 0 5.2  C 0 2.28800000000005  1.40425531914897 0  3.19148936170213 0  L 86.8085106382979 0  C 88.595744680851 0  90 2.28800000000005  90 5.2  L 90 20.8  C 90 23.712  88.595744680851 26  86.8085106382979 26  L 50.4570527974768 26  L 3.19148936170213 26  C 1.40425531914897 26  0 23.712  0 20.8  Z " stroke-width="2" stroke="#797979" fill="none" transform="matrix(1 0 0 1 899 716 )" mask="url(#clip7)" />
  </g>
</svg>