<?xml version="1.0" encoding="utf-8"?>
<svg version="1.1" xmlns:xlink="http://www.w3.org/1999/xlink" width="185px" height="29px" xmlns="http://www.w3.org/2000/svg">
  <defs>
    <mask fill="white" id="clip8">
      <path d="M 0 24  L 0 5  C 0 2.2  2.20000000000005 0  5 0  L 141.75 0  L 180 0  C 182.8 0  185 2.2  185 5  L 185 24  C 185 26.8  182.8 29  180 29  L 5 29  C 2.20000000000005 29  0 26.8  0 24  Z " fill-rule="evenodd" />
    </mask>
  </defs>
  <g transform="matrix(1 0 0 1 -792 -96 )">
    <path d="M 0 24  L 0 5  C 0 2.2  2.20000000000005 0  5 0  L 141.75 0  L 180 0  C 182.8 0  185 2.2  185 5  L 185 24  C 185 26.8  182.8 29  180 29  L 5 29  C 2.20000000000005 29  0 26.8  0 24  Z " fill-rule="nonzero" fill="#ffffff" stroke="none" transform="matrix(1 0 0 1 792 96 )" />
    <path d="M 0 24  L 0 5  C 0 2.2  2.20000000000005 0  5 0  L 141.75 0  L 180 0  C 182.8 0  185 2.2  185 5  L 185 24  C 185 26.8  182.8 29  180 29  L 5 29  C 2.20000000000005 29  0 26.8  0 24  Z " stroke-width="2" stroke="#797979" fill="none" transform="matrix(1 0 0 1 792 96 )" mask="url(#clip8)" />
  </g>
</svg>