<?xml version="1.0" encoding="utf-8"?>
<svg version="1.1" xmlns:xlink="http://www.w3.org/1999/xlink" width="12px" height="12px" viewBox="436 289  12 12" xmlns="http://www.w3.org/2000/svg">
  <path d="M 442 289  C 445.36 289  448 291.64  448 295  C 448 298.36  445.36 301  442 301  C 438.64 301  436 298.36  436 295  C 436 291.64  438.64 289  442 289  Z " fill-rule="nonzero" fill="#ffffff" stroke="none" />
  <path d="M 442 289.5  C 445.08 289.5  447.5 291.92  447.5 295  C 447.5 298.08  445.08 300.5  442 300.5  C 438.92 300.5  436.5 298.08  436.5 295  C 436.5 291.92  438.92 289.5  442 289.5  Z " stroke-width="1" stroke="#797979" fill="none" />
  <path d="M 442 298  C 440.32 298  439 296.68  439 295  C 439 293.32  440.32 292  442 292  C 443.68 292  445 293.32  445 295  C 445 296.68  443.68 298  442 298  " fill-rule="nonzero" fill="#797979" stroke="none" />
</svg>