<?xml version="1.0" encoding="utf-8"?>
<svg version="1.1" xmlns:xlink="http://www.w3.org/1999/xlink" width="12px" height="12px" viewBox="244 1354  12 12" xmlns="http://www.w3.org/2000/svg">
  <path d="M 250 1354  C 253.36 1354  256 1356.64  256 1360  C 256 1363.36  253.36 1366  250 1366  C 246.64 1366  244 1363.36  244 1360  C 244 1356.64  246.64 1354  250 1354  Z " fill-rule="nonzero" fill="#ffffff" stroke="none" />
  <path d="M 250 1354.5  C 253.08 1354.5  255.5 1356.92  255.5 1360  C 255.5 1363.08  253.08 1365.5  250 1365.5  C 246.92 1365.5  244.5 1363.08  244.5 1360  C 244.5 1356.92  246.92 1354.5  250 1354.5  Z " stroke-width="1" stroke="#797979" fill="none" />
  <path d="M 250 1363  C 248.32 1363  247 1361.68  247 1360  C 247 1358.32  248.32 1357  250 1357  C 251.68 1357  253 1358.32  253 1360  C 253 1361.68  251.68 1363  250 1363  " fill-rule="nonzero" fill="#797979" stroke="none" />
</svg>