<?xml version="1.0" encoding="utf-8"?>
<svg version="1.1" xmlns:xlink="http://www.w3.org/1999/xlink" width="12px" height="12px" viewBox="316 1354  12 12" xmlns="http://www.w3.org/2000/svg">
  <path d="M 322 1354  C 325.36 1354  328 1356.64  328 1360  C 328 1363.36  325.36 1366  322 1366  C 318.64 1366  316 1363.36  316 1360  C 316 1356.64  318.64 1354  322 1354  Z " fill-rule="nonzero" fill="#f0f0f0" stroke="none" />
  <path d="M 322 1354.5  C 325.08 1354.5  327.5 1356.92  327.5 1360  C 327.5 1363.08  325.08 1365.5  322 1365.5  C 318.92 1365.5  316.5 1363.08  316.5 1360  C 316.5 1356.92  318.92 1354.5  322 1354.5  Z " stroke-width="1" stroke="#797979" fill="none" />
  <path d="M 322 1363  C 320.32 1363  319 1361.68  319 1360  C 319 1358.32  320.32 1357  322 1357  C 323.68 1357  325 1358.32  325 1360  C 325 1361.68  323.68 1363  322 1363  " fill-rule="nonzero" fill="#797979" stroke="none" />
</svg>