<?xml version="1.0" encoding="utf-8"?>
<svg version="1.1" xmlns:xlink="http://www.w3.org/1999/xlink" width="12px" height="12px" viewBox="244 1400  12 12" xmlns="http://www.w3.org/2000/svg">
  <path d="M 250 1400  C 253.36 1400  256 1402.64  256 1406  C 256 1409.36  253.36 1412  250 1412  C 246.64 1412  244 1409.36  244 1406  C 244 1402.64  246.64 1400  250 1400  Z " fill-rule="nonzero" fill="#ffffff" stroke="none" />
  <path d="M 250 1400.5  C 253.08 1400.5  255.5 1402.92  255.5 1406  C 255.5 1409.08  253.08 1411.5  250 1411.5  C 246.92 1411.5  244.5 1409.08  244.5 1406  C 244.5 1402.92  246.92 1400.5  250 1400.5  Z " stroke-width="1" stroke="#797979" fill="none" />
  <path d="M 250 1409  C 248.32 1409  247 1407.68  247 1406  C 247 1404.32  248.32 1403  250 1403  C 251.68 1403  253 1404.32  253 1406  C 253 1407.68  251.68 1409  250 1409  " fill-rule="nonzero" fill="#797979" stroke="none" />
</svg>