<?xml version="1.0" encoding="utf-8"?>
<svg version="1.1" xmlns:xlink="http://www.w3.org/1999/xlink" width="12px" height="12px" viewBox="316 1400  12 12" xmlns="http://www.w3.org/2000/svg">
  <path d="M 322 1400  C 325.36 1400  328 1402.64  328 1406  C 328 1409.36  325.36 1412  322 1412  C 318.64 1412  316 1409.36  316 1406  C 316 1402.64  318.64 1400  322 1400  Z " fill-rule="nonzero" fill="#f0f0f0" stroke="none" />
  <path d="M 322 1400.5  C 325.08 1400.5  327.5 1402.92  327.5 1406  C 327.5 1409.08  325.08 1411.5  322 1411.5  C 318.92 1411.5  316.5 1409.08  316.5 1406  C 316.5 1402.92  318.92 1400.5  322 1400.5  Z " stroke-width="1" stroke="#797979" fill="none" />
  <path d="M 322 1409  C 320.32 1409  319 1407.68  319 1406  C 319 1404.32  320.32 1403  322 1403  C 323.68 1403  325 1404.32  325 1406  C 325 1407.68  323.68 1409  322 1409  " fill-rule="nonzero" fill="#797979" stroke="none" />
</svg>