<?xml version="1.0" encoding="utf-8"?>
<svg version="1.1" xmlns:xlink="http://www.w3.org/1999/xlink" width="12px" height="12px" viewBox="128 121  12 12" xmlns="http://www.w3.org/2000/svg">
  <path d="M 134 121  C 137.36 121  140 123.64  140 127  C 140 130.36  137.36 133  134 133  C 130.64 133  128 130.36  128 127  C 128 123.64  130.64 121  134 121  Z " fill-rule="nonzero" fill="#ffffff" stroke="none" />
  <path d="M 134 121.5  C 137.08 121.5  139.5 123.92  139.5 127  C 139.5 130.08  137.08 132.5  134 132.5  C 130.92 132.5  128.5 130.08  128.5 127  C 128.5 123.92  130.92 121.5  134 121.5  Z " stroke-width="1" stroke="#797979" fill="none" />
  <path d="M 134 130  C 132.32 130  131 128.68  131 127  C 131 125.32  132.32 124  134 124  C 135.68 124  137 125.32  137 127  C 137 128.68  135.68 130  134 130  " fill-rule="nonzero" fill="#797979" stroke="none" />
</svg>