<?xml version="1.0" encoding="utf-8"?>
<svg version="1.1" xmlns:xlink="http://www.w3.org/1999/xlink" width="12px" height="12px" viewBox="311 121  12 12" xmlns="http://www.w3.org/2000/svg">
  <path d="M 317 121  C 320.36 121  323 123.64  323 127  C 323 130.36  320.36 133  317 133  C 313.64 133  311 130.36  311 127  C 311 123.64  313.64 121  317 121  Z " fill-rule="nonzero" fill="#f0f0f0" stroke="none" />
  <path d="M 317 121.5  C 320.08 121.5  322.5 123.92  322.5 127  C 322.5 130.08  320.08 132.5  317 132.5  C 313.92 132.5  311.5 130.08  311.5 127  C 311.5 123.92  313.92 121.5  317 121.5  Z " stroke-width="1" stroke="#797979" fill="none" />
  <path d="M 317 130  C 315.32 130  314 128.68  314 127  C 314 125.32  315.32 124  317 124  C 318.68 124  320 125.32  320 127  C 320 128.68  318.68 130  317 130  " fill-rule="nonzero" fill="#797979" stroke="none" />
</svg>