<?xml version="1.0" encoding="utf-8"?>
<svg version="1.1" xmlns:xlink="http://www.w3.org/1999/xlink" width="12px" height="12px" viewBox="221 121  12 12" xmlns="http://www.w3.org/2000/svg">
  <path d="M 227 121  C 230.36 121  233 123.64  233 127  C 233 130.36  230.36 133  227 133  C 223.64 133  221 130.36  221 127  C 221 123.64  223.64 121  227 121  Z " fill-rule="nonzero" fill="#ffffff" stroke="none" />
  <path d="M 227 121.5  C 230.08 121.5  232.5 123.92  232.5 127  C 232.5 130.08  230.08 132.5  227 132.5  C 223.92 132.5  221.5 130.08  221.5 127  C 221.5 123.92  223.92 121.5  227 121.5  Z " stroke-width="1" stroke="#797979" fill="none" />
  <path d="M 227 130  C 225.32 130  224 128.68  224 127  C 224 125.32  225.32 124  227 124  C 228.68 124  230 125.32  230 127  C 230 128.68  228.68 130  227 130  " fill-rule="nonzero" fill="#797979" stroke="none" />
</svg>