<?xml version="1.0" encoding="utf-8"?>
<svg version="1.1" xmlns:xlink="http://www.w3.org/1999/xlink" width="12px" height="12px" viewBox="308 794  12 12" xmlns="http://www.w3.org/2000/svg">
  <path d="M 314 794  C 317.36 794  320 796.64  320 800  C 320 803.36  317.36 806  314 806  C 310.64 806  308 803.36  308 800  C 308 796.64  310.64 794  314 794  Z " fill-rule="nonzero" fill="#f0f0f0" stroke="none" />
  <path d="M 314 794.5  C 317.08 794.5  319.5 796.92  319.5 800  C 319.5 803.08  317.08 805.5  314 805.5  C 310.92 805.5  308.5 803.08  308.5 800  C 308.5 796.92  310.92 794.5  314 794.5  Z " stroke-width="1" stroke="#797979" fill="none" />
  <path d="M 314 803  C 312.32 803  311 801.68  311 800  C 311 798.32  312.32 797  314 797  C 315.68 797  317 798.32  317 800  C 317 801.68  315.68 803  314 803  " fill-rule="nonzero" fill="#797979" stroke="none" />
</svg>