<?xml version="1.0" encoding="utf-8"?>
<svg version="1.1" xmlns:xlink="http://www.w3.org/1999/xlink" width="12px" height="12px" viewBox="308 840  12 12" xmlns="http://www.w3.org/2000/svg">
  <path d="M 314 840  C 317.36 840  320 842.64  320 846  C 320 849.36  317.36 852  314 852  C 310.64 852  308 849.36  308 846  C 308 842.64  310.64 840  314 840  Z " fill-rule="nonzero" fill="#f0f0f0" stroke="none" />
  <path d="M 314 840.5  C 317.08 840.5  319.5 842.92  319.5 846  C 319.5 849.08  317.08 851.5  314 851.5  C 310.92 851.5  308.5 849.08  308.5 846  C 308.5 842.92  310.92 840.5  314 840.5  Z " stroke-width="1" stroke="#797979" fill="none" />
  <path d="M 314 849  C 312.32 849  311 847.68  311 846  C 311 844.32  312.32 843  314 843  C 315.68 843  317 844.32  317 846  C 317 847.68  315.68 849  314 849  " fill-rule="nonzero" fill="#797979" stroke="none" />
</svg>