<?xml version="1.0" encoding="utf-8"?>
<svg version="1.1" xmlns:xlink="http://www.w3.org/1999/xlink" width="12px" height="12px" viewBox="236 840  12 12" xmlns="http://www.w3.org/2000/svg">
  <path d="M 242 840  C 245.36 840  248 842.64  248 846  C 248 849.36  245.36 852  242 852  C 238.64 852  236 849.36  236 846  C 236 842.64  238.64 840  242 840  Z " fill-rule="nonzero" fill="#f0f0f0" stroke="none" />
  <path d="M 242 840.5  C 245.08 840.5  247.5 842.92  247.5 846  C 247.5 849.08  245.08 851.5  242 851.5  C 238.92 851.5  236.5 849.08  236.5 846  C 236.5 842.92  238.92 840.5  242 840.5  Z " stroke-width="1" stroke="#797979" fill="none" />
  <path d="M 242 849  C 240.32 849  239 847.68  239 846  C 239 844.32  240.32 843  242 843  C 243.68 843  245 844.32  245 846  C 245 847.68  243.68 849  242 849  " fill-rule="nonzero" fill="#797979" stroke="none" />
</svg>