<?xml version="1.0" encoding="utf-8"?>
<svg version="1.1" xmlns:xlink="http://www.w3.org/1999/xlink" width="12px" height="12px" viewBox="292 1456  12 12" xmlns="http://www.w3.org/2000/svg">
  <path d="M 298 1456  C 301.36 1456  304 1458.64  304 1462  C 304 1465.36  301.36 1468  298 1468  C 294.64 1468  292 1465.36  292 1462  C 292 1458.64  294.64 1456  298 1456  Z " fill-rule="nonzero" fill="#f0f0f0" stroke="none" />
  <path d="M 298 1456.5  C 301.08 1456.5  303.5 1458.92  303.5 1462  C 303.5 1465.08  301.08 1467.5  298 1467.5  C 294.92 1467.5  292.5 1465.08  292.5 1462  C 292.5 1458.92  294.92 1456.5  298 1456.5  Z " stroke-width="1" stroke="#797979" fill="none" />
  <path d="M 298 1465  C 296.32 1465  295 1463.68  295 1462  C 295 1460.32  296.32 1459  298 1459  C 299.68 1459  301 1460.32  301 1462  C 301 1463.68  299.68 1465  298 1465  " fill-rule="nonzero" fill="#797979" stroke="none" />
</svg>