<?xml version="1.0" encoding="utf-8"?>
<svg version="1.1" xmlns:xlink="http://www.w3.org/1999/xlink" width="12px" height="12px" viewBox="220 1502  12 12" xmlns="http://www.w3.org/2000/svg">
  <path d="M 226 1502  C 229.36 1502  232 1504.64  232 1508  C 232 1511.36  229.36 1514  226 1514  C 222.64 1514  220 1511.36  220 1508  C 220 1504.64  222.64 1502  226 1502  Z " fill-rule="nonzero" fill="#ffffff" stroke="none" />
  <path d="M 226 1502.5  C 229.08 1502.5  231.5 1504.92  231.5 1508  C 231.5 1511.08  229.08 1513.5  226 1513.5  C 222.92 1513.5  220.5 1511.08  220.5 1508  C 220.5 1504.92  222.92 1502.5  226 1502.5  Z " stroke-width="1" stroke="#797979" fill="none" />
  <path d="M 226 1511  C 224.32 1511  223 1509.68  223 1508  C 223 1506.32  224.32 1505  226 1505  C 227.68 1505  229 1506.32  229 1508  C 229 1509.68  227.68 1511  226 1511  " fill-rule="nonzero" fill="#797979" stroke="none" />
</svg>