<?xml version="1.0" encoding="utf-8"?>
<svg version="1.1" xmlns:xlink="http://www.w3.org/1999/xlink" width="12px" height="12px" viewBox="292 1502  12 12" xmlns="http://www.w3.org/2000/svg">
  <path d="M 298 1502  C 301.36 1502  304 1504.64  304 1508  C 304 1511.36  301.36 1514  298 1514  C 294.64 1514  292 1511.36  292 1508  C 292 1504.64  294.64 1502  298 1502  Z " fill-rule="nonzero" fill="#f0f0f0" stroke="none" />
  <path d="M 298 1502.5  C 301.08 1502.5  303.5 1504.92  303.5 1508  C 303.5 1511.08  301.08 1513.5  298 1513.5  C 294.92 1513.5  292.5 1511.08  292.5 1508  C 292.5 1504.92  294.92 1502.5  298 1502.5  Z " stroke-width="1" stroke="#797979" fill="none" />
  <path d="M 298 1511  C 296.32 1511  295 1509.68  295 1508  C 295 1506.32  296.32 1505  298 1505  C 299.68 1505  301 1506.32  301 1508  C 301 1509.68  299.68 1511  298 1511  " fill-rule="nonzero" fill="#797979" stroke="none" />
</svg>