<?xml version="1.0" encoding="utf-8"?>
<svg version="1.1" xmlns:xlink="http://www.w3.org/1999/xlink" width="12px" height="12px" viewBox="236 917  12 12" xmlns="http://www.w3.org/2000/svg">
  <path d="M 242 917  C 245.36 917  248 919.64  248 923  C 248 926.36  245.36 929  242 929  C 238.64 929  236 926.36  236 923  C 236 919.64  238.64 917  242 917  Z " fill-rule="nonzero" fill="#ffffff" stroke="none" />
  <path d="M 242 917.5  C 245.08 917.5  247.5 919.92  247.5 923  C 247.5 926.08  245.08 928.5  242 928.5  C 238.92 928.5  236.5 926.08  236.5 923  C 236.5 919.92  238.92 917.5  242 917.5  Z " stroke-width="1" stroke="#797979" fill="none" />
  <path d="M 242 926  C 240.32 926  239 924.68  239 923  C 239 921.32  240.32 920  242 920  C 243.68 920  245 921.32  245 923  C 245 924.68  243.68 926  242 926  " fill-rule="nonzero" fill="#797979" stroke="none" />
</svg>