<?xml version="1.0" encoding="utf-8"?>
<svg version="1.1" xmlns:xlink="http://www.w3.org/1999/xlink" width="12px" height="12px" viewBox="308 963  12 12" xmlns="http://www.w3.org/2000/svg">
  <path d="M 314 963  C 317.36 963  320 965.64  320 969  C 320 972.36  317.36 975  314 975  C 310.64 975  308 972.36  308 969  C 308 965.64  310.64 963  314 963  Z " fill-rule="nonzero" fill="#f0f0f0" stroke="none" />
  <path d="M 314 963.5  C 317.08 963.5  319.5 965.92  319.5 969  C 319.5 972.08  317.08 974.5  314 974.5  C 310.92 974.5  308.5 972.08  308.5 969  C 308.5 965.92  310.92 963.5  314 963.5  Z " stroke-width="1" stroke="#797979" fill="none" />
  <path d="M 314 972  C 312.32 972  311 970.68  311 969  C 311 967.32  312.32 966  314 966  C 315.68 966  317 967.32  317 969  C 317 970.68  315.68 972  314 972  " fill-rule="nonzero" fill="#797979" stroke="none" />
</svg>