<?xml version="1.0" encoding="utf-8"?>
<svg version="1.1" xmlns:xlink="http://www.w3.org/1999/xlink" width="127px" height="25px" xmlns="http://www.w3.org/2000/svg">
  <defs>
    <mask fill="white" id="clip9">
      <path d="M 0 20  L 0 5  C 0 2.20000000000005  1.98156028368798 0  4.50354609929078 0  L 122.496453900709 0  C 125.018439716312 0  127 2.20000000000005  127 5  L 127 20  C 127 22.8  125.018439716312 25  122.496453900709 25  L 71.2005078364395 25  L 4.50354609929078 25  C 1.98156028368798 25  0 22.8  0 20  Z " fill-rule="evenodd" />
    </mask>
  </defs>
  <g transform="matrix(1 0 0 1 -769 -1240 )">
    <path d="M 0 20  L 0 5  C 0 2.20000000000005  1.98156028368798 0  4.50354609929078 0  L 122.496453900709 0  C 125.018439716312 0  127 2.20000000000005  127 5  L 127 20  C 127 22.8  125.018439716312 25  122.496453900709 25  L 71.2005078364395 25  L 4.50354609929078 25  C 1.98156028368798 25  0 22.8  0 20  Z " fill-rule="nonzero" fill="#ffffff" stroke="none" transform="matrix(1 0 0 1 769 1240 )" />
    <path d="M 0 20  L 0 5  C 0 2.20000000000005  1.98156028368798 0  4.50354609929078 0  L 122.496453900709 0  C 125.018439716312 0  127 2.20000000000005  127 5  L 127 20  C 127 22.8  125.018439716312 25  122.496453900709 25  L 71.2005078364395 25  L 4.50354609929078 25  C 1.98156028368798 25  0 22.8  0 20  Z " stroke-width="2" stroke="#797979" fill="none" transform="matrix(1 0 0 1 769 1240 )" mask="url(#clip9)" />
  </g>
</svg>