<?xml version="1.0" encoding="utf-8"?>
<svg version="1.1" xmlns:xlink="http://www.w3.org/1999/xlink" width="44px" height="33px" xmlns="http://www.w3.org/2000/svg">
  <g transform="matrix(1 0 0 1 -1027 -279 )">
    <path d="M 1027 279  L 1071 279  L 1071 312  L 1027 312  L 1027 279  " fill-rule="nonzero" fill="#cccccc" stroke="none" />
    <path d="M 1029 281  L 1069 281  L 1069 310  L 1029 310  L 1029 281  " fill-rule="nonzero" fill="#ffffff" stroke="none" />
    <path d="M 1052.355 288.9  C 1050.969 288.9  1049.88 287.811  1049.88 286.425  C 1049.88 285.039  1050.969 283.95  1052.355 283.95  C 1053.741 283.95  1054.83 285.039  1054.83 286.425  C 1054.83 287.811  1053.741 288.9  1052.355 288.9  " fill-rule="nonzero" fill="#cccccc" stroke="none" />
    <path d="M 1030 309  L 1030 294.15  L 1039.5 287.4  L 1052.8 296.85  L 1060.4 291.45  L 1068 296.85  L 1068 309  L 1030 309  " fill-rule="nonzero" fill="#169bd5" stroke="none" />
  </g>
</svg>