<?xml version="1.0" encoding="utf-8"?>
<svg version="1.1" xmlns:xlink="http://www.w3.org/1999/xlink" width="12px" height="12px" viewBox="268 1762  12 12" xmlns="http://www.w3.org/2000/svg">
  <path d="M 274 1762  C 277.36 1762  280 1764.64  280 1768  C 280 1771.36  277.36 1774  274 1774  C 270.64 1774  268 1771.36  268 1768  C 268 1764.64  270.64 1762  274 1762  Z " fill-rule="nonzero" fill="#f0f0f0" stroke="none" />
  <path d="M 274 1762.5  C 277.08 1762.5  279.5 1764.92  279.5 1768  C 279.5 1771.08  277.08 1773.5  274 1773.5  C 270.92 1773.5  268.5 1771.08  268.5 1768  C 268.5 1764.92  270.92 1762.5  274 1762.5  Z " stroke-width="1" stroke="#797979" fill="none" />
  <path d="M 274 1771  C 272.32 1771  271 1769.68  271 1768  C 271 1766.32  272.32 1765  274 1765  C 275.68 1765  277 1766.32  277 1768  C 277 1769.68  275.68 1771  274 1771  " fill-rule="nonzero" fill="#797979" stroke="none" />
</svg>