<?xml version="1.0" encoding="utf-8"?>
<svg version="1.1" xmlns:xlink="http://www.w3.org/1999/xlink" width="12px" height="12px" viewBox="340 1762  12 12" xmlns="http://www.w3.org/2000/svg">
  <path d="M 346 1762  C 349.36 1762  352 1764.64  352 1768  C 352 1771.36  349.36 1774  346 1774  C 342.64 1774  340 1771.36  340 1768  C 340 1764.64  342.64 1762  346 1762  Z " fill-rule="nonzero" fill="#ffffff" stroke="none" />
  <path d="M 346 1762.5  C 349.08 1762.5  351.5 1764.92  351.5 1768  C 351.5 1771.08  349.08 1773.5  346 1773.5  C 342.92 1773.5  340.5 1771.08  340.5 1768  C 340.5 1764.92  342.92 1762.5  346 1762.5  Z " stroke-width="1" stroke="#797979" fill="none" />
  <path d="M 346 1771  C 344.32 1771  343 1769.68  343 1768  C 343 1766.32  344.32 1765  346 1765  C 347.68 1765  349 1766.32  349 1768  C 349 1769.68  347.68 1771  346 1771  " fill-rule="nonzero" fill="#797979" stroke="none" />
</svg>