<?xml version="1.0" encoding="utf-8"?>
<svg version="1.1" xmlns:xlink="http://www.w3.org/1999/xlink" width="12px" height="12px" viewBox="268 1808  12 12" xmlns="http://www.w3.org/2000/svg">
  <path d="M 274 1808  C 277.36 1808  280 1810.64  280 1814  C 280 1817.36  277.36 1820  274 1820  C 270.64 1820  268 1817.36  268 1814  C 268 1810.64  270.64 1808  274 1808  Z " fill-rule="nonzero" fill="#ffffff" stroke="none" />
  <path d="M 274 1808.5  C 277.08 1808.5  279.5 1810.92  279.5 1814  C 279.5 1817.08  277.08 1819.5  274 1819.5  C 270.92 1819.5  268.5 1817.08  268.5 1814  C 268.5 1810.92  270.92 1808.5  274 1808.5  Z " stroke-width="1" stroke="#797979" fill="none" />
  <path d="M 274 1817  C 272.32 1817  271 1815.68  271 1814  C 271 1812.32  272.32 1811  274 1811  C 275.68 1811  277 1812.32  277 1814  C 277 1815.68  275.68 1817  274 1817  " fill-rule="nonzero" fill="#797979" stroke="none" />
</svg>