<?xml version="1.0" encoding="utf-8"?>
<svg version="1.1" xmlns:xlink="http://www.w3.org/1999/xlink" width="12px" height="12px" viewBox="308 888  12 12" xmlns="http://www.w3.org/2000/svg">
  <path d="M 314 888  C 317.36 888  320 890.64  320 894  C 320 897.36  317.36 900  314 900  C 310.64 900  308 897.36  308 894  C 308 890.64  310.64 888  314 888  Z " fill-rule="nonzero" fill="#f0f0f0" stroke="none" />
  <path d="M 314 888.5  C 317.08 888.5  319.5 890.92  319.5 894  C 319.5 897.08  317.08 899.5  314 899.5  C 310.92 899.5  308.5 897.08  308.5 894  C 308.5 890.92  310.92 888.5  314 888.5  Z " stroke-width="1" stroke="#797979" fill="none" />
  <path d="M 314 897  C 312.32 897  311 895.68  311 894  C 311 892.32  312.32 891  314 891  C 315.68 891  317 892.32  317 894  C 317 895.68  315.68 897  314 897  " fill-rule="nonzero" fill="#797979" stroke="none" />
</svg>