<?xml version="1.0" encoding="utf-8"?>
<svg version="1.1" xmlns:xlink="http://www.w3.org/1999/xlink" width="12px" height="12px" viewBox="236 842  12 12" xmlns="http://www.w3.org/2000/svg">
  <path d="M 242 842  C 245.36 842  248 844.64  248 848  C 248 851.36  245.36 854  242 854  C 238.64 854  236 851.36  236 848  C 236 844.64  238.64 842  242 842  Z " fill-rule="nonzero" fill="#ffffff" stroke="none" />
  <path d="M 242 842.5  C 245.08 842.5  247.5 844.92  247.5 848  C 247.5 851.08  245.08 853.5  242 853.5  C 238.92 853.5  236.5 851.08  236.5 848  C 236.5 844.92  238.92 842.5  242 842.5  Z " stroke-width="1" stroke="#797979" fill="none" />
  <path d="M 242 851  C 240.32 851  239 849.68  239 848  C 239 846.32  240.32 845  242 845  C 243.68 845  245 846.32  245 848  C 245 849.68  243.68 851  242 851  " fill-rule="nonzero" fill="#797979" stroke="none" />
</svg>