<?xml version="1.0" encoding="utf-8"?>
<svg version="1.1" xmlns:xlink="http://www.w3.org/1999/xlink" width="12px" height="12px" viewBox="236 888  12 12" xmlns="http://www.w3.org/2000/svg">
  <path d="M 242 888  C 245.36 888  248 890.64  248 894  C 248 897.36  245.36 900  242 900  C 238.64 900  236 897.36  236 894  C 236 890.64  238.64 888  242 888  Z " fill-rule="nonzero" fill="#ffffff" stroke="none" />
  <path d="M 242 888.5  C 245.08 888.5  247.5 890.92  247.5 894  C 247.5 897.08  245.08 899.5  242 899.5  C 238.92 899.5  236.5 897.08  236.5 894  C 236.5 890.92  238.92 888.5  242 888.5  Z " stroke-width="1" stroke="#797979" fill="none" />
  <path d="M 242 897  C 240.32 897  239 895.68  239 894  C 239 892.32  240.32 891  242 891  C 243.68 891  245 892.32  245 894  C 245 895.68  243.68 897  242 897  " fill-rule="nonzero" fill="#797979" stroke="none" />
</svg>