<?xml version="1.0" encoding="utf-8"?>
<svg version="1.1" xmlns:xlink="http://www.w3.org/1999/xlink" width="12px" height="12px" viewBox="440 398  12 12" xmlns="http://www.w3.org/2000/svg">
  <path d="M 446 398  C 449.36 398  452 400.64  452 404  C 452 407.36  449.36 410  446 410  C 442.64 410  440 407.36  440 404  C 440 400.64  442.64 398  446 398  Z " fill-rule="nonzero" fill="#f0f0f0" stroke="none" />
  <path d="M 446 398.5  C 449.08 398.5  451.5 400.92  451.5 404  C 451.5 407.08  449.08 409.5  446 409.5  C 442.92 409.5  440.5 407.08  440.5 404  C 440.5 400.92  442.92 398.5  446 398.5  Z " stroke-width="1" stroke="#797979" fill="none" />
  <path d="M 446 407  C 444.32 407  443 405.68  443 404  C 443 402.32  444.32 401  446 401  C 447.68 401  449 402.32  449 404  C 449 405.68  447.68 407  446 407  " fill-rule="nonzero" fill="#797979" stroke="none" />
</svg>