<?xml version="1.0" encoding="utf-8"?>
<svg version="1.1" xmlns:xlink="http://www.w3.org/1999/xlink" width="27px" height="27px" xmlns="http://www.w3.org/2000/svg">
  <g transform="matrix(1 0 0 1 -1216 -1409 )">
    <path d="M 1229.5 1409  C 1237.06 1409  1243 1414.94  1243 1422.5  C 1243 1430.06  1237.06 1436  1229.5 1436  C 1221.94 1436  1216 1430.06  1216 1422.5  C 1216 1414.94  1221.94 1409  1229.5 1409  Z " fill-rule="nonzero" fill="#009900" stroke="none" />
    <path d="M 1229.5 1409.5  C 1236.78 1409.5  1242.5 1415.22  1242.5 1422.5  C 1242.5 1429.78  1236.78 1435.5  1229.5 1435.5  C 1222.22 1435.5  1216.5 1429.78  1216.5 1422.5  C 1216.5 1415.22  1222.22 1409.5  1229.5 1409.5  Z " stroke-width="1" stroke="#797979" fill="none" />
  </g>
</svg>