<?xml version="1.0" encoding="utf-8"?>
<svg version="1.1" xmlns:xlink="http://www.w3.org/1999/xlink" width="17px" height="20px" xmlns="http://www.w3.org/2000/svg">
  <g transform="matrix(1 0 0 1 -2198 -946 )">
    <path d="M 13.9563802083333 18.359375  C 14.0965711805556 18.218005952381  14.1666666666667 18.0505952380952  14.1666666666667 17.8571428571429  C 14.1666666666667 17.6636904761905  14.0965711805556 17.4962797619048  13.9563802083333 17.3549107142857  C 13.8161892361111 17.2135416666667  13.6501736111111 17.1428571428571  13.4583333333333 17.1428571428571  C 13.2664930555556 17.1428571428571  13.1004774305556 17.2135416666667  12.9602864583333 17.3549107142857  C 12.8200954861111 17.4962797619048  12.75 17.6636904761905  12.75 17.8571428571429  C 12.75 18.0505952380952  12.8200954861111 18.218005952381  12.9602864583333 18.359375  C 13.1004774305556 18.500744047619  13.2664930555556 18.5714285714286  13.4583333333333 18.5714285714286  C 13.6501736111111 18.5714285714286  13.8161892361111 18.500744047619  13.9563802083333 18.359375  Z M 15.2291666666667 11.3337053571429  C 15.4652777777778 10.600818452381  15.5833333333333 9.93303571428571  15.5833333333333 9.33035714285714  C 15.5833333333333 7.92410714285714  14.9672309027778 7.22098214285714  13.7350260416667 7.22098214285714  C 13.5431857638889 7.22098214285714  13.3365885416667 7.23958333333333  13.115234375 7.27678571428571  C 12.9971788194444 7.05357142857143  12.8034939236111 6.87686011904762  12.5341796875 6.74665178571429  C 12.2648654513889 6.61644345238095  11.9937065972222 6.55133928571429  11.720703125 6.55133928571429  C 11.4476996527778 6.55133928571429  11.1931423611111 6.61830357142857  10.95703125 6.75223214285714  C 10.5881076388889 6.3578869047619  10.1490885416667 6.16071428571429  9.63997395833333 6.16071428571429  C 9.45551215277778 6.16071428571429  9.25075954861111 6.19791666666667  9.02571614583333 6.27232142857143  C 8.80067274305556 6.34672619047619  8.62543402777778 6.43973214285714  8.5 6.55133928571429  L 8.5 2.85714285714286  C 8.5 2.4702380952381  8.35980902777778 2.13541666666667  8.07942708333333 1.85267857142857  C 7.79904513888889 1.56994047619047  7.46701388888889 1.42857142857143  7.08333333333333 1.42857142857143  C 6.70703125 1.42857142857143  6.37684461805556 1.57366071428571  6.0927734375 1.86383928571429  C 5.80870225694444 2.15401785714286  5.66666666666667 2.48511904761905  5.66666666666667 2.85714285714286  L 5.66666666666667 9.28571428571429  C 5.51909722222222 9.28571428571429  5.34016927083333 9.22991071428571  5.1298828125 9.11830357142857  C 4.91959635416667 9.00669642857143  4.71668836805556 8.88392857142857  4.52115885416667 8.75  C 4.32562934027778 8.61607142857143  4.07476128472222 8.49330357142857  3.7685546875 8.38169642857143  C 3.46234809027778 8.27008928571429  3.15060763888889 8.21428571428571  2.83333333333333 8.21428571428571  C 2.33897569444444 8.21428571428571  1.97927517361111 8.37983630952381  1.75423177083333 8.7109375  C 1.52918836805556 9.04203869047619  1.41666666666667 9.47172619047619  1.41666666666667 10  C 1.41666666666667 10.1785714285714  1.92947048611111 10.5133928571429  2.955078125 11.0044642857143  C 3.27973090277778 11.1830357142857  3.51953125 11.3206845238095  3.67447916666667 11.4174107142857  C 4.14670138888889 11.7150297619048  4.681640625 12.1316964285714  5.279296875 12.6674107142857  C 5.876953125 13.1956845238095  6.26801215277778 13.5714285714286  6.45247395833333 13.7946428571429  C 6.873046875 14.3080357142857  7.08333333333333 14.828869047619  7.08333333333333 15.3571428571429  L 7.08333333333333 15.7142857142857  L 14.1666666666667 15.7142857142857  L 14.1666666666667 15.3571428571429  C 14.1666666666667 14.8214285714286  14.2847222222222 14.2001488095238  14.5208333333333 13.4933035714286  C 14.7569444444444 12.7864583333333  14.9930555555556 12.0665922619048  15.2291666666667 11.3337053571429  Z M 16.1090494791667 6.74107142857143  C 16.7030164930556 7.38095238095238  17 8.22544642857143  17 9.27455357142857  C 17 10.2641369047619  16.7454427083333 11.4620535714286  16.236328125 12.8683035714286  C 15.8009982638889 14.0885416666667  15.5833333333333 14.9181547619048  15.5833333333333 15.3571428571429  L 15.5833333333333 18.5714285714286  C 15.5833333333333 18.9657738095238  15.4449869791667 19.3024553571429  15.1682942708333 19.5814732142857  C 14.8916015625 19.8604910714286  14.5577256944444 20  14.1666666666667 20  L 7.08333333333333 20  C 6.69227430555556 20  6.3583984375 19.8604910714286  6.08170572916667 19.5814732142857  C 5.80501302083333 19.3024553571429  5.66666666666667 18.9657738095238  5.66666666666667 18.5714285714286  L 5.66666666666667 15.3571428571429  C 5.66666666666667 15.2827380952381  5.65006510416667 15.2027529761905  5.61686197916667 15.1171875  C 5.58365885416667 15.0316220238095  5.53200954861111 14.9441964285714  5.4619140625 14.8549107142857  C 5.39181857638889 14.765625  5.32541232638889 14.6819196428571  5.2626953125 14.6037946428571  C 5.19997829861111 14.5256696428571  5.11697048611111 14.4363839285714  5.013671875 14.3359375  C 4.91037326388889 14.2354910714286  4.8310546875 14.1592261904762  4.77571614583333 14.1071428571429  C 4.72037760416667 14.0550595238095  4.64105902777778 13.984375  4.53776041666667 13.8950892857143  C 4.43446180555556 13.8058035714286  4.37174479166667 13.7537202380952  4.349609375 13.7388392857143  C 3.80360243055556 13.2552083333333  3.32769097222222 12.8831845238095  2.921875 12.6227678571429  C 2.76692708333333 12.5260416666667  2.53819444444444 12.4032738095238  2.23567708333333 12.2544642857143  C 1.93315972222222 12.1056547619048  1.66753472222222 11.968005952381  1.43880208333333 11.8415178571429  C 1.21006944444444 11.7150297619048  0.977647569444445 11.5643601190476  0.741536458333333 11.3895089285714  C 0.505425347222222 11.2146577380952  0.322808159722222 11.0100446428571  0.193684895833333 10.7756696428571  C 0.0645616319444444 10.5412946428571  0 10.2827380952381  0 10  C 0 9.06994047619048  0.247178819444444 8.30171130952381  0.741536458333333 7.6953125  C 1.23589409722222 7.08891369047619  1.93315972222222 6.78571428571429  2.83333333333333 6.78571428571429  C 3.33506944444444 6.78571428571429  3.80729166666667 6.86755952380952  4.25 7.03125  L 4.25 2.85714285714286  C 4.25 2.08333333333333  4.53038194444444 1.41369047619047  5.09114583333333 0.848214285714286  C 5.65190972222222 0.282738095238098  6.31228298611111 0  7.072265625 0  C 7.84700520833333 0  8.51475694444444 0.280877976190477  9.07552083333333 0.842633928571428  C 9.63628472222222 1.40438988095238  9.91666666666667 2.07589285714286  9.91666666666667 2.85714285714286  L 9.91666666666667 4.74330357142857  C 10.3741319444444 4.77306547619047  10.8131510416667 4.91071428571429  11.2337239583333 5.15625  C 11.388671875 5.13392857142857  11.5473090277778 5.12276785714286  11.7096354166667 5.12276785714286  C 12.4548611111111 5.12276785714286  13.1115451388889 5.34598214285714  13.6796875 5.79241071428571  C 14.7052951388889 5.78497023809524  15.5150824652778 6.10119047619047  16.1090494791667 6.74107142857143  Z " fill-rule="nonzero" fill="#333333" stroke="none" transform="matrix(1 0 0 1 2198 946 )" />
  </g>
</svg>