<?xml version="1.0" encoding="utf-8"?>
<svg version="1.1" xmlns:xlink="http://www.w3.org/1999/xlink" width="12px" height="12px" viewBox="292 1196  12 12" xmlns="http://www.w3.org/2000/svg">
  <path d="M 298 1196  C 301.36 1196  304 1198.64  304 1202  C 304 1205.36  301.36 1208  298 1208  C 294.64 1208  292 1205.36  292 1202  C 292 1198.64  294.64 1196  298 1196  Z " fill-rule="nonzero" fill="#f0f0f0" stroke="none" />
  <path d="M 298 1196.5  C 301.08 1196.5  303.5 1198.92  303.5 1202  C 303.5 1205.08  301.08 1207.5  298 1207.5  C 294.92 1207.5  292.5 1205.08  292.5 1202  C 292.5 1198.92  294.92 1196.5  298 1196.5  Z " stroke-width="1" stroke="#797979" fill="none" />
  <path d="M 298 1205  C 296.32 1205  295 1203.68  295 1202  C 295 1200.32  296.32 1199  298 1199  C 299.68 1199  301 1200.32  301 1202  C 301 1203.68  299.68 1205  298 1205  " fill-rule="nonzero" fill="#797979" stroke="none" />
</svg>