<?xml version="1.0" encoding="utf-8"?>
<svg version="1.1" xmlns:xlink="http://www.w3.org/1999/xlink" width="12px" height="12px" viewBox="220 1150  12 12" xmlns="http://www.w3.org/2000/svg">
  <path d="M 226 1150  C 229.36 1150  232 1152.64  232 1156  C 232 1159.36  229.36 1162  226 1162  C 222.64 1162  220 1159.36  220 1156  C 220 1152.64  222.64 1150  226 1150  Z " fill-rule="nonzero" fill="#ffffff" stroke="none" />
  <path d="M 226 1150.5  C 229.08 1150.5  231.5 1152.92  231.5 1156  C 231.5 1159.08  229.08 1161.5  226 1161.5  C 222.92 1161.5  220.5 1159.08  220.5 1156  C 220.5 1152.92  222.92 1150.5  226 1150.5  Z " stroke-width="1" stroke="#797979" fill="none" />
  <path d="M 226 1159  C 224.32 1159  223 1157.68  223 1156  C 223 1154.32  224.32 1153  226 1153  C 227.68 1153  229 1154.32  229 1156  C 229 1157.68  227.68 1159  226 1159  " fill-rule="nonzero" fill="#797979" stroke="none" />
</svg>