<?xml version="1.0" encoding="utf-8"?>
<svg version="1.1" xmlns:xlink="http://www.w3.org/1999/xlink" width="12px" height="12px" viewBox="220 1196  12 12" xmlns="http://www.w3.org/2000/svg">
  <path d="M 226 1196  C 229.36 1196  232 1198.64  232 1202  C 232 1205.36  229.36 1208  226 1208  C 222.64 1208  220 1205.36  220 1202  C 220 1198.64  222.64 1196  226 1196  Z " fill-rule="nonzero" fill="#ffffff" stroke="none" />
  <path d="M 226 1196.5  C 229.08 1196.5  231.5 1198.92  231.5 1202  C 231.5 1205.08  229.08 1207.5  226 1207.5  C 222.92 1207.5  220.5 1205.08  220.5 1202  C 220.5 1198.92  222.92 1196.5  226 1196.5  Z " stroke-width="1" stroke="#797979" fill="none" />
  <path d="M 226 1205  C 224.32 1205  223 1203.68  223 1202  C 223 1200.32  224.32 1199  226 1199  C 227.68 1199  229 1200.32  229 1202  C 229 1203.68  227.68 1205  226 1205  " fill-rule="nonzero" fill="#797979" stroke="none" />
</svg>