<?xml version="1.0" encoding="utf-8"?>
<svg version="1.1" xmlns:xlink="http://www.w3.org/1999/xlink" width="12px" height="12px" viewBox="292 1150  12 12" xmlns="http://www.w3.org/2000/svg">
  <path d="M 298 1150  C 301.36 1150  304 1152.64  304 1156  C 304 1159.36  301.36 1162  298 1162  C 294.64 1162  292 1159.36  292 1156  C 292 1152.64  294.64 1150  298 1150  Z " fill-rule="nonzero" fill="#f0f0f0" stroke="none" />
  <path d="M 298 1150.5  C 301.08 1150.5  303.5 1152.92  303.5 1156  C 303.5 1159.08  301.08 1161.5  298 1161.5  C 294.92 1161.5  292.5 1159.08  292.5 1156  C 292.5 1152.92  294.92 1150.5  298 1150.5  Z " stroke-width="1" stroke="#797979" fill="none" />
  <path d="M 298 1159  C 296.32 1159  295 1157.68  295 1156  C 295 1154.32  296.32 1153  298 1153  C 299.68 1153  301 1154.32  301 1156  C 301 1157.68  299.68 1159  298 1159  " fill-rule="nonzero" fill="#797979" stroke="none" />
</svg>