<?xml version="1.0" encoding="utf-8"?>
<svg version="1.1" xmlns:xlink="http://www.w3.org/1999/xlink" width="123px" height="26px" xmlns="http://www.w3.org/2000/svg">
  <defs>
    <mask fill="white" id="clip6">
      <path d="M 0 20.8  L 0 5.2  C 0 2.28800000000005  1.91914893617025 0  4.36170212765957 0  L 118.63829787234 0  C 121.08085106383 0  123 2.28800000000005  123 5.2  L 123 20.8  C 123 23.712  121.08085106383 26  118.63829787234 26  L 68.9579721565517 26  L 4.36170212765957 26  C 1.91914893617025 26  0 23.712  0 20.8  Z " fill-rule="evenodd" />
    </mask>
  </defs>
  <g transform="matrix(1 0 0 1 -816 -551 )">
    <path d="M 0 20.8  L 0 5.2  C 0 2.28800000000005  1.91914893617025 0  4.36170212765957 0  L 118.63829787234 0  C 121.08085106383 0  123 2.28800000000005  123 5.2  L 123 20.8  C 123 23.712  121.08085106383 26  118.63829787234 26  L 68.9579721565517 26  L 4.36170212765957 26  C 1.91914893617025 26  0 23.712  0 20.8  Z " fill-rule="nonzero" fill="#ffffff" stroke="none" transform="matrix(1 0 0 1 816 551 )" />
    <path d="M 0 20.8  L 0 5.2  C 0 2.28800000000005  1.91914893617025 0  4.36170212765957 0  L 118.63829787234 0  C 121.08085106383 0  123 2.28800000000005  123 5.2  L 123 20.8  C 123 23.712  121.08085106383 26  118.63829787234 26  L 68.9579721565517 26  L 4.36170212765957 26  C 1.91914893617025 26  0 23.712  0 20.8  Z " stroke-width="2" stroke="#797979" fill="none" transform="matrix(1 0 0 1 816 551 )" mask="url(#clip6)" />
  </g>
</svg>