<?xml version="1.0" encoding="utf-8"?>
<svg version="1.1" xmlns:xlink="http://www.w3.org/1999/xlink" width="12px" height="12px" viewBox="220 1047  12 12" xmlns="http://www.w3.org/2000/svg">
  <path d="M 226 1047  C 229.36 1047  232 1049.64  232 1053  C 232 1056.36  229.36 1059  226 1059  C 222.64 1059  220 1056.36  220 1053  C 220 1049.64  222.64 1047  226 1047  Z " fill-rule="nonzero" fill="#f0f0f0" stroke="none" />
  <path d="M 226 1047.5  C 229.08 1047.5  231.5 1049.92  231.5 1053  C 231.5 1056.08  229.08 1058.5  226 1058.5  C 222.92 1058.5  220.5 1056.08  220.5 1053  C 220.5 1049.92  222.92 1047.5  226 1047.5  Z " stroke-width="1" stroke="#797979" fill="none" />
  <path d="M 226 1056  C 224.32 1056  223 1054.68  223 1053  C 223 1051.32  224.32 1050  226 1050  C 227.68 1050  229 1051.32  229 1053  C 229 1054.68  227.68 1056  226 1056  " fill-rule="nonzero" fill="#797979" stroke="none" />
</svg>