<?xml version="1.0" encoding="utf-8"?>
<svg version="1.1" xmlns:xlink="http://www.w3.org/1999/xlink" width="12px" height="12px" viewBox="292 1047  12 12" xmlns="http://www.w3.org/2000/svg">
  <path d="M 298 1047  C 301.36 1047  304 1049.64  304 1053  C 304 1056.36  301.36 1059  298 1059  C 294.64 1059  292 1056.36  292 1053  C 292 1049.64  294.64 1047  298 1047  Z " fill-rule="nonzero" fill="#ffffff" stroke="none" />
  <path d="M 298 1047.5  C 301.08 1047.5  303.5 1049.92  303.5 1053  C 303.5 1056.08  301.08 1058.5  298 1058.5  C 294.92 1058.5  292.5 1056.08  292.5 1053  C 292.5 1049.92  294.92 1047.5  298 1047.5  Z " stroke-width="1" stroke="#797979" fill="none" />
  <path d="M 298 1056  C 296.32 1056  295 1054.68  295 1053  C 295 1051.32  296.32 1050  298 1050  C 299.68 1050  301 1051.32  301 1053  C 301 1054.68  299.68 1056  298 1056  " fill-rule="nonzero" fill="#797979" stroke="none" />
</svg>