<?xml version="1.0" encoding="utf-8"?>
<svg version="1.1" xmlns:xlink="http://www.w3.org/1999/xlink" width="12px" height="12px" viewBox="292 1093  12 12" xmlns="http://www.w3.org/2000/svg">
  <path d="M 298 1093  C 301.36 1093  304 1095.64  304 1099  C 304 1102.36  301.36 1105  298 1105  C 294.64 1105  292 1102.36  292 1099  C 292 1095.64  294.64 1093  298 1093  Z " fill-rule="nonzero" fill="#ffffff" stroke="none" />
  <path d="M 298 1093.5  C 301.08 1093.5  303.5 1095.92  303.5 1099  C 303.5 1102.08  301.08 1104.5  298 1104.5  C 294.92 1104.5  292.5 1102.08  292.5 1099  C 292.5 1095.92  294.92 1093.5  298 1093.5  Z " stroke-width="1" stroke="#797979" fill="none" />
  <path d="M 298 1102  C 296.32 1102  295 1100.68  295 1099  C 295 1097.32  296.32 1096  298 1096  C 299.68 1096  301 1097.32  301 1099  C 301 1100.68  299.68 1102  298 1102  " fill-rule="nonzero" fill="#797979" stroke="none" />
</svg>