<?xml version="1.0" encoding="utf-8"?>
<svg version="1.1" xmlns:xlink="http://www.w3.org/1999/xlink" width="64px" height="25px" xmlns="http://www.w3.org/2000/svg">
  <defs>
    <mask fill="white" id="clip5">
      <path d="M 0 20  L 0 5  C 0 2.20000000000005  0.998581560283709 0  2.26950354609929 0  L 61.7304964539007 0  C 63.0014184397163 0  64 2.20000000000005  64 5  L 64 20  C 64 22.8  63.0014184397163 25  61.7304964539007 25  L 35.8805708782057 25  L 2.26950354609929 25  C 0.998581560283709 25  0 22.8  0 20  Z " fill-rule="evenodd" />
    </mask>
  </defs>
  <g transform="matrix(1 0 0 1 -760 -384 )">
    <path d="M 0 20  L 0 5  C 0 2.20000000000005  0.998581560283709 0  2.26950354609929 0  L 61.7304964539007 0  C 63.0014184397163 0  64 2.20000000000005  64 5  L 64 20  C 64 22.8  63.0014184397163 25  61.7304964539007 25  L 35.8805708782057 25  L 2.26950354609929 25  C 0.998581560283709 25  0 22.8  0 20  Z " fill-rule="nonzero" fill="#ffffff" stroke="none" transform="matrix(1 0 0 1 760 384 )" />
    <path d="M 0 20  L 0 5  C 0 2.20000000000005  0.998581560283709 0  2.26950354609929 0  L 61.7304964539007 0  C 63.0014184397163 0  64 2.20000000000005  64 5  L 64 20  C 64 22.8  63.0014184397163 25  61.7304964539007 25  L 35.8805708782057 25  L 2.26950354609929 25  C 0.998581560283709 25  0 22.8  0 20  Z " stroke-width="2" stroke="#797979" fill="none" transform="matrix(1 0 0 1 760 384 )" mask="url(#clip5)" />
  </g>
</svg>