<?xml version="1.0" encoding="utf-8"?>
<svg version="1.1" xmlns:xlink="http://www.w3.org/1999/xlink" width="76px" height="25px" xmlns="http://www.w3.org/2000/svg">
  <defs>
    <mask fill="white" id="clip3">
      <path d="M 0 20  L 0 5  C 0 2.20000000000005  1.1858156028369 0  2.69503546099291 0  L 73.3049645390071 0  C 74.8141843971631 0  76 2.20000000000005  76 5  L 76 20  C 76 22.8  74.8141843971631 25  73.3049645390071 25  L 42.6081779178693 25  L 2.69503546099291 25  C 1.1858156028369 25  0 22.8  0 20  Z " fill-rule="evenodd" />
    </mask>
  </defs>
  <g transform="matrix(1 0 0 1 -839 -383 )">
    <path d="M 0 20  L 0 5  C 0 2.20000000000005  1.1858156028369 0  2.69503546099291 0  L 73.3049645390071 0  C 74.8141843971631 0  76 2.20000000000005  76 5  L 76 20  C 76 22.8  74.8141843971631 25  73.3049645390071 25  L 42.6081779178693 25  L 2.69503546099291 25  C 1.1858156028369 25  0 22.8  0 20  Z " fill-rule="nonzero" fill="#ffffff" stroke="none" transform="matrix(1 0 0 1 839 383 )" />
    <path d="M 0 20  L 0 5  C 0 2.20000000000005  1.1858156028369 0  2.69503546099291 0  L 73.3049645390071 0  C 74.8141843971631 0  76 2.20000000000005  76 5  L 76 20  C 76 22.8  74.8141843971631 25  73.3049645390071 25  L 42.6081779178693 25  L 2.69503546099291 25  C 1.1858156028369 25  0 22.8  0 20  Z " stroke-width="2" stroke="#797979" fill="none" transform="matrix(1 0 0 1 839 383 )" mask="url(#clip3)" />
  </g>
</svg>