<?xml version="1.0" encoding="utf-8"?>
<svg version="1.1" xmlns:xlink="http://www.w3.org/1999/xlink" width="63px" height="25px" xmlns="http://www.w3.org/2000/svg">
  <defs>
    <mask fill="white" id="clip4">
      <path d="M 0 20  L 0 5  C 0 2.20000000000005  0.982978723404276 0  2.23404255319149 0  L 60.7659574468085 0  C 62.0170212765957 0  63 2.20000000000005  63 5  L 63 20  C 63 22.8  62.0170212765957 25  60.7659574468085 25  L 35.3199369582338 25  L 2.23404255319149 25  C 0.982978723404276 25  0 22.8  0 20  Z " fill-rule="evenodd" />
    </mask>
  </defs>
  <g transform="matrix(1 0 0 1 -926 -383 )">
    <path d="M 0 20  L 0 5  C 0 2.20000000000005  0.982978723404276 0  2.23404255319149 0  L 60.7659574468085 0  C 62.0170212765957 0  63 2.20000000000005  63 5  L 63 20  C 63 22.8  62.0170212765957 25  60.7659574468085 25  L 35.3199369582338 25  L 2.23404255319149 25  C 0.982978723404276 25  0 22.8  0 20  Z " fill-rule="nonzero" fill="#ffffff" stroke="none" transform="matrix(1 0 0 1 926 383 )" />
    <path d="M 0 20  L 0 5  C 0 2.20000000000005  0.982978723404276 0  2.23404255319149 0  L 60.7659574468085 0  C 62.0170212765957 0  63 2.20000000000005  63 5  L 63 20  C 63 22.8  62.0170212765957 25  60.7659574468085 25  L 35.3199369582338 25  L 2.23404255319149 25  C 0.982978723404276 25  0 22.8  0 20  Z " stroke-width="2" stroke="#797979" fill="none" transform="matrix(1 0 0 1 926 383 )" mask="url(#clip4)" />
  </g>
</svg>