<?xml version="1.0" encoding="utf-8"?>
<svg version="1.1" xmlns:xlink="http://www.w3.org/1999/xlink" width="12px" height="12px" viewBox="228 403  12 12" xmlns="http://www.w3.org/2000/svg">
  <path d="M 234 403  C 237.36 403  240 405.64  240 409  C 240 412.36  237.36 415  234 415  C 230.64 415  228 412.36  228 409  C 228 405.64  230.64 403  234 403  Z " fill-rule="nonzero" fill="#ffffff" stroke="none" />
  <path d="M 234 403.5  C 237.08 403.5  239.5 405.92  239.5 409  C 239.5 412.08  237.08 414.5  234 414.5  C 230.92 414.5  228.5 412.08  228.5 409  C 228.5 405.92  230.92 403.5  234 403.5  Z " stroke-width="1" stroke="#797979" fill="none" />
  <path d="M 234 412  C 232.32 412  231 410.68  231 409  C 231 407.32  232.32 406  234 406  C 235.68 406  237 407.32  237 409  C 237 410.68  235.68 412  234 412  " fill-rule="nonzero" fill="#797979" stroke="none" />
</svg>