<?xml version="1.0" encoding="utf-8"?>
<svg version="1.1" xmlns:xlink="http://www.w3.org/1999/xlink" width="12px" height="12px" viewBox="228 357  12 12" xmlns="http://www.w3.org/2000/svg">
  <path d="M 234 357  C 237.36 357  240 359.64  240 363  C 240 366.36  237.36 369  234 369  C 230.64 369  228 366.36  228 363  C 228 359.64  230.64 357  234 357  Z " fill-rule="nonzero" fill="#f0f0f0" stroke="none" />
  <path d="M 234 357.5  C 237.08 357.5  239.5 359.92  239.5 363  C 239.5 366.08  237.08 368.5  234 368.5  C 230.92 368.5  228.5 366.08  228.5 363  C 228.5 359.92  230.92 357.5  234 357.5  Z " stroke-width="1" stroke="#797979" fill="none" />
  <path d="M 234 366  C 232.32 366  231 364.68  231 363  C 231 361.32  232.32 360  234 360  C 235.68 360  237 361.32  237 363  C 237 364.68  235.68 366  234 366  " fill-rule="nonzero" fill="#797979" stroke="none" />
</svg>