<?xml version="1.0" encoding="utf-8"?>
<svg version="1.1" xmlns:xlink="http://www.w3.org/1999/xlink" width="12px" height="12px" viewBox="220 559  12 12" xmlns="http://www.w3.org/2000/svg">
  <path d="M 226 559  C 229.36 559  232 561.64  232 565  C 232 568.36  229.36 571  226 571  C 222.64 571  220 568.36  220 565  C 220 561.64  222.64 559  226 559  Z " fill-rule="nonzero" fill="#f0f0f0" stroke="none" />
  <path d="M 226 559.5  C 229.08 559.5  231.5 561.92  231.5 565  C 231.5 568.08  229.08 570.5  226 570.5  C 222.92 570.5  220.5 568.08  220.5 565  C 220.5 561.92  222.92 559.5  226 559.5  Z " stroke-width="1" stroke="#797979" fill="none" />
  <path d="M 226 568  C 224.32 568  223 566.68  223 565  C 223 563.32  224.32 562  226 562  C 227.68 562  229 563.32  229 565  C 229 566.68  227.68 568  226 568  " fill-rule="nonzero" fill="#797979" stroke="none" />
</svg>