<?xml version="1.0" encoding="utf-8"?>
<svg version="1.1" xmlns:xlink="http://www.w3.org/1999/xlink" width="12px" height="12px" viewBox="220 605  12 12" xmlns="http://www.w3.org/2000/svg">
  <path d="M 226 605  C 229.36 605  232 607.64  232 611  C 232 614.36  229.36 617  226 617  C 222.64 617  220 614.36  220 611  C 220 607.64  222.64 605  226 605  Z " fill-rule="nonzero" fill="#f0f0f0" stroke="none" />
  <path d="M 226 605.5  C 229.08 605.5  231.5 607.92  231.5 611  C 231.5 614.08  229.08 616.5  226 616.5  C 222.92 616.5  220.5 614.08  220.5 611  C 220.5 607.92  222.92 605.5  226 605.5  Z " stroke-width="1" stroke="#797979" fill="none" />
  <path d="M 226 614  C 224.32 614  223 612.68  223 611  C 223 609.32  224.32 608  226 608  C 227.68 608  229 609.32  229 611  C 229 612.68  227.68 614  226 614  " fill-rule="nonzero" fill="#797979" stroke="none" />
</svg>