<?xml version="1.0" encoding="utf-8"?>
<svg version="1.1" xmlns:xlink="http://www.w3.org/1999/xlink" width="12px" height="12px" viewBox="292 559  12 12" xmlns="http://www.w3.org/2000/svg">
  <path d="M 298 559  C 301.36 559  304 561.64  304 565  C 304 568.36  301.36 571  298 571  C 294.64 571  292 568.36  292 565  C 292 561.64  294.64 559  298 559  Z " fill-rule="nonzero" fill="#f0f0f0" stroke="none" />
  <path d="M 298 559.5  C 301.08 559.5  303.5 561.92  303.5 565  C 303.5 568.08  301.08 570.5  298 570.5  C 294.92 570.5  292.5 568.08  292.5 565  C 292.5 561.92  294.92 559.5  298 559.5  Z " stroke-width="1" stroke="#797979" fill="none" />
  <path d="M 298 568  C 296.32 568  295 566.68  295 565  C 295 563.32  296.32 562  298 562  C 299.68 562  301 563.32  301 565  C 301 566.68  299.68 568  298 568  " fill-rule="nonzero" fill="#797979" stroke="none" />
</svg>