<?xml version="1.0" encoding="utf-8"?>
<svg version="1.1" xmlns:xlink="http://www.w3.org/1999/xlink" width="12px" height="12px" viewBox="369 287  12 12" xmlns="http://www.w3.org/2000/svg">
  <path d="M 375 287  C 378.36 287  381 289.64  381 293  C 381 296.36  378.36 299  375 299  C 371.64 299  369 296.36  369 293  C 369 289.64  371.64 287  375 287  Z " fill-rule="nonzero" fill="#ffffff" stroke="none" />
  <path d="M 375 287.5  C 378.08 287.5  380.5 289.92  380.5 293  C 380.5 296.08  378.08 298.5  375 298.5  C 371.92 298.5  369.5 296.08  369.5 293  C 369.5 289.92  371.92 287.5  375 287.5  Z " stroke-width="1" stroke="#797979" fill="none" />
  <path d="M 375 296  C 373.32 296  372 294.68  372 293  C 372 291.32  373.32 290  375 290  C 376.68 290  378 291.32  378 293  C 378 294.68  376.68 296  375 296  " fill-rule="nonzero" fill="#797979" stroke="none" />
</svg>