<?xml version="1.0" encoding="utf-8"?>
<svg version="1.1" xmlns:xlink="http://www.w3.org/1999/xlink" width="12px" height="12px" viewBox="276 287  12 12" xmlns="http://www.w3.org/2000/svg">
  <path d="M 282 287  C 285.36 287  288 289.64  288 293  C 288 296.36  285.36 299  282 299  C 278.64 299  276 296.36  276 293  C 276 289.64  278.64 287  282 287  Z " fill-rule="nonzero" fill="#ffffff" stroke="none" />
  <path d="M 282 287.5  C 285.08 287.5  287.5 289.92  287.5 293  C 287.5 296.08  285.08 298.5  282 298.5  C 278.92 298.5  276.5 296.08  276.5 293  C 276.5 289.92  278.92 287.5  282 287.5  Z " stroke-width="1" stroke="#797979" fill="none" />
  <path d="M 282 296  C 280.32 296  279 294.68  279 293  C 279 291.32  280.32 290  282 290  C 283.68 290  285 291.32  285 293  C 285 294.68  283.68 296  282 296  " fill-rule="nonzero" fill="#797979" stroke="none" />
</svg>