<?xml version="1.0" encoding="utf-8"?>
<svg version="1.1" xmlns:xlink="http://www.w3.org/1999/xlink" width="12px" height="12px" viewBox="459 287  12 12" xmlns="http://www.w3.org/2000/svg">
  <path d="M 465 287  C 468.36 287  471 289.64  471 293  C 471 296.36  468.36 299  465 299  C 461.64 299  459 296.36  459 293  C 459 289.64  461.64 287  465 287  Z " fill-rule="nonzero" fill="#ffffff" stroke="none" />
  <path d="M 465 287.5  C 468.08 287.5  470.5 289.92  470.5 293  C 470.5 296.08  468.08 298.5  465 298.5  C 461.92 298.5  459.5 296.08  459.5 293  C 459.5 289.92  461.92 287.5  465 287.5  Z " stroke-width="1" stroke="#797979" fill="none" />
  <path d="M 465 296  C 463.32 296  462 294.68  462 293  C 462 291.32  463.32 290  465 290  C 466.68 290  468 291.32  468 293  C 468 294.68  466.68 296  465 296  " fill-rule="nonzero" fill="#797979" stroke="none" />
</svg>