<?xml version="1.0" encoding="utf-8"?>
<svg version="1.1" xmlns:xlink="http://www.w3.org/1999/xlink" width="12px" height="12px" viewBox="316 964  12 12" xmlns="http://www.w3.org/2000/svg">
  <path d="M 322 964  C 325.36 964  328 966.64  328 970  C 328 973.36  325.36 976  322 976  C 318.64 976  316 973.36  316 970  C 316 966.64  318.64 964  322 964  Z " fill-rule="nonzero" fill="#f0f0f0" stroke="none" />
  <path d="M 322 964.5  C 325.08 964.5  327.5 966.92  327.5 970  C 327.5 973.08  325.08 975.5  322 975.5  C 318.92 975.5  316.5 973.08  316.5 970  C 316.5 966.92  318.92 964.5  322 964.5  Z " stroke-width="1" stroke="#797979" fill="none" />
  <path d="M 322 973  C 320.32 973  319 971.68  319 970  C 319 968.32  320.32 967  322 967  C 323.68 967  325 968.32  325 970  C 325 971.68  323.68 973  322 973  " fill-rule="nonzero" fill="#797979" stroke="none" />
</svg>