<?xml version="1.0" encoding="utf-8"?>
<svg version="1.1" xmlns:xlink="http://www.w3.org/1999/xlink" width="12px" height="12px" viewBox="244 964  12 12" xmlns="http://www.w3.org/2000/svg">
  <path d="M 250 964  C 253.36 964  256 966.64  256 970  C 256 973.36  253.36 976  250 976  C 246.64 976  244 973.36  244 970  C 244 966.64  246.64 964  250 964  Z " fill-rule="nonzero" fill="#ffffff" stroke="none" />
  <path d="M 250 964.5  C 253.08 964.5  255.5 966.92  255.5 970  C 255.5 973.08  253.08 975.5  250 975.5  C 246.92 975.5  244.5 973.08  244.5 970  C 244.5 966.92  246.92 964.5  250 964.5  Z " stroke-width="1" stroke="#797979" fill="none" />
  <path d="M 250 973  C 248.32 973  247 971.68  247 970  C 247 968.32  248.32 967  250 967  C 251.68 967  253 968.32  253 970  C 253 971.68  251.68 973  250 973  " fill-rule="nonzero" fill="#797979" stroke="none" />
</svg>