<?xml version="1.0" encoding="utf-8"?>
<svg version="1.1" xmlns:xlink="http://www.w3.org/1999/xlink" width="12px" height="12px" viewBox="316 1010  12 12" xmlns="http://www.w3.org/2000/svg">
  <path d="M 322 1010  C 325.36 1010  328 1012.64  328 1016  C 328 1019.36  325.36 1022  322 1022  C 318.64 1022  316 1019.36  316 1016  C 316 1012.64  318.64 1010  322 1010  Z " fill-rule="nonzero" fill="#f0f0f0" stroke="none" />
  <path d="M 322 1010.5  C 325.08 1010.5  327.5 1012.92  327.5 1016  C 327.5 1019.08  325.08 1021.5  322 1021.5  C 318.92 1021.5  316.5 1019.08  316.5 1016  C 316.5 1012.92  318.92 1010.5  322 1010.5  Z " stroke-width="1" stroke="#797979" fill="none" />
  <path d="M 322 1019  C 320.32 1019  319 1017.68  319 1016  C 319 1014.32  320.32 1013  322 1013  C 323.68 1013  325 1014.32  325 1016  C 325 1017.68  323.68 1019  322 1019  " fill-rule="nonzero" fill="#797979" stroke="none" />
</svg>