<?xml version="1.0" encoding="utf-8"?>
<svg version="1.1" xmlns:xlink="http://www.w3.org/1999/xlink" width="12px" height="12px" viewBox="292 1171  12 12" xmlns="http://www.w3.org/2000/svg">
  <path d="M 298 1171  C 301.36 1171  304 1173.64  304 1177  C 304 1180.36  301.36 1183  298 1183  C 294.64 1183  292 1180.36  292 1177  C 292 1173.64  294.64 1171  298 1171  Z " fill-rule="nonzero" fill="#f0f0f0" stroke="none" />
  <path d="M 298 1171.5  C 301.08 1171.5  303.5 1173.92  303.5 1177  C 303.5 1180.08  301.08 1182.5  298 1182.5  C 294.92 1182.5  292.5 1180.08  292.5 1177  C 292.5 1173.92  294.92 1171.5  298 1171.5  Z " stroke-width="1" stroke="#797979" fill="none" />
  <path d="M 298 1180  C 296.32 1180  295 1178.68  295 1177  C 295 1175.32  296.32 1174  298 1174  C 299.68 1174  301 1175.32  301 1177  C 301 1178.68  299.68 1180  298 1180  " fill-rule="nonzero" fill="#797979" stroke="none" />
</svg>