<?xml version="1.0" encoding="utf-8"?>
<svg version="1.1" xmlns:xlink="http://www.w3.org/1999/xlink" width="12px" height="12px" viewBox="324 253  12 12" xmlns="http://www.w3.org/2000/svg">
  <path d="M 330 253  C 333.36 253  336 255.64  336 259  C 336 262.36  333.36 265  330 265  C 326.64 265  324 262.36  324 259  C 324 255.64  326.64 253  330 253  Z " fill-rule="nonzero" fill="#f0f0f0" stroke="none" />
  <path d="M 330 253.5  C 333.08 253.5  335.5 255.92  335.5 259  C 335.5 262.08  333.08 264.5  330 264.5  C 326.92 264.5  324.5 262.08  324.5 259  C 324.5 255.92  326.92 253.5  330 253.5  Z " stroke-width="1" stroke="#797979" fill="none" />
  <path d="M 330 262  C 328.32 262  327 260.68  327 259  C 327 257.32  328.32 256  330 256  C 331.68 256  333 257.32  333 259  C 333 260.68  331.68 262  330 262  " fill-rule="nonzero" fill="#797979" stroke="none" />
</svg>