<?xml version="1.0" encoding="utf-8"?>
<svg version="1.1" xmlns:xlink="http://www.w3.org/1999/xlink" width="12px" height="12px" viewBox="236 808  12 12" xmlns="http://www.w3.org/2000/svg">
  <path d="M 242 808  C 245.36 808  248 810.64  248 814  C 248 817.36  245.36 820  242 820  C 238.64 820  236 817.36  236 814  C 236 810.64  238.64 808  242 808  Z " fill-rule="nonzero" fill="#ffffff" stroke="none" />
  <path d="M 242 808.5  C 245.08 808.5  247.5 810.92  247.5 814  C 247.5 817.08  245.08 819.5  242 819.5  C 238.92 819.5  236.5 817.08  236.5 814  C 236.5 810.92  238.92 808.5  242 808.5  Z " stroke-width="1" stroke="#797979" fill="none" />
  <path d="M 242 817  C 240.32 817  239 815.68  239 814  C 239 812.32  240.32 811  242 811  C 243.68 811  245 812.32  245 814  C 245 815.68  243.68 817  242 817  " fill-rule="nonzero" fill="#797979" stroke="none" />
</svg>