<?xml version="1.0" encoding="utf-8"?>
<svg version="1.1" xmlns:xlink="http://www.w3.org/1999/xlink" width="12px" height="12px" viewBox="308 762  12 12" xmlns="http://www.w3.org/2000/svg">
  <path d="M 314 762  C 317.36 762  320 764.64  320 768  C 320 771.36  317.36 774  314 774  C 310.64 774  308 771.36  308 768  C 308 764.64  310.64 762  314 762  Z " fill-rule="nonzero" fill="#ffffff" stroke="none" />
  <path d="M 314 762.5  C 317.08 762.5  319.5 764.92  319.5 768  C 319.5 771.08  317.08 773.5  314 773.5  C 310.92 773.5  308.5 771.08  308.5 768  C 308.5 764.92  310.92 762.5  314 762.5  Z " stroke-width="1" stroke="#797979" fill="none" />
  <path d="M 314 771  C 312.32 771  311 769.68  311 768  C 311 766.32  312.32 765  314 765  C 315.68 765  317 766.32  317 768  C 317 769.68  315.68 771  314 771  " fill-rule="nonzero" fill="#797979" stroke="none" />
</svg>