<?xml version="1.0" encoding="utf-8"?>
<svg version="1.1" xmlns:xlink="http://www.w3.org/1999/xlink" width="12px" height="12px" viewBox="292 1002  12 12" xmlns="http://www.w3.org/2000/svg">
  <path d="M 298 1002  C 301.36 1002  304 1004.64  304 1008  C 304 1011.36  301.36 1014  298 1014  C 294.64 1014  292 1011.36  292 1008  C 292 1004.64  294.64 1002  298 1002  Z " fill-rule="nonzero" fill="#f0f0f0" stroke="none" />
  <path d="M 298 1002.5  C 301.08 1002.5  303.5 1004.92  303.5 1008  C 303.5 1011.08  301.08 1013.5  298 1013.5  C 294.92 1013.5  292.5 1011.08  292.5 1008  C 292.5 1004.92  294.92 1002.5  298 1002.5  Z " stroke-width="1" stroke="#797979" fill="none" />
  <path d="M 298 1011  C 296.32 1011  295 1009.68  295 1008  C 295 1006.32  296.32 1005  298 1005  C 299.68 1005  301 1006.32  301 1008  C 301 1009.68  299.68 1011  298 1011  " fill-rule="nonzero" fill="#797979" stroke="none" />
</svg>