<?xml version="1.0" encoding="utf-8"?>
<svg version="1.1" xmlns:xlink="http://www.w3.org/1999/xlink" width="12px" height="12px" viewBox="292 1048  12 12" xmlns="http://www.w3.org/2000/svg">
  <path d="M 298 1048  C 301.36 1048  304 1050.64  304 1054  C 304 1057.36  301.36 1060  298 1060  C 294.64 1060  292 1057.36  292 1054  C 292 1050.64  294.64 1048  298 1048  Z " fill-rule="nonzero" fill="#ffffff" stroke="none" />
  <path d="M 298 1048.5  C 301.08 1048.5  303.5 1050.92  303.5 1054  C 303.5 1057.08  301.08 1059.5  298 1059.5  C 294.92 1059.5  292.5 1057.08  292.5 1054  C 292.5 1050.92  294.92 1048.5  298 1048.5  Z " stroke-width="1" stroke="#797979" fill="none" />
  <path d="M 298 1057  C 296.32 1057  295 1055.68  295 1054  C 295 1052.32  296.32 1051  298 1051  C 299.68 1051  301 1052.32  301 1054  C 301 1055.68  299.68 1057  298 1057  " fill-rule="nonzero" fill="#797979" stroke="none" />
</svg>