<?xml version="1.0" encoding="utf-8"?>
<svg version="1.1" xmlns:xlink="http://www.w3.org/1999/xlink" width="12px" height="12px" viewBox="220 1002  12 12" xmlns="http://www.w3.org/2000/svg">
  <path d="M 226 1002  C 229.36 1002  232 1004.64  232 1008  C 232 1011.36  229.36 1014  226 1014  C 222.64 1014  220 1011.36  220 1008  C 220 1004.64  222.64 1002  226 1002  Z " fill-rule="nonzero" fill="#f0f0f0" stroke="none" />
  <path d="M 226 1002.5  C 229.08 1002.5  231.5 1004.92  231.5 1008  C 231.5 1011.08  229.08 1013.5  226 1013.5  C 222.92 1013.5  220.5 1011.08  220.5 1008  C 220.5 1004.92  222.92 1002.5  226 1002.5  Z " stroke-width="1" stroke="#797979" fill="none" />
  <path d="M 226 1011  C 224.32 1011  223 1009.68  223 1008  C 223 1006.32  224.32 1005  226 1005  C 227.68 1005  229 1006.32  229 1008  C 229 1009.68  227.68 1011  226 1011  " fill-rule="nonzero" fill="#797979" stroke="none" />
</svg>