<?xml version="1.0" encoding="utf-8"?>
<svg version="1.1" xmlns:xlink="http://www.w3.org/1999/xlink" width="60px" height="60px" xmlns="http://www.w3.org/2000/svg">
  <g transform="matrix(1 0 0 1 -117 -99 )">
    <path d="M 147 99  C 163.8 99  177 112.2  177 129  C 177 145.8  163.8 159  147 159  C 130.2 159  117 145.8  117 129  C 117 112.2  130.2 99  147 99  Z " fill-rule="nonzero" fill="#ffffff" stroke="none" />
    <path d="M 147 99.5  C 163.52 99.5  176.5 112.48  176.5 129  C 176.5 145.52  163.52 158.5  147 158.5  C 130.48 158.5  117.5 145.52  117.5 129  C 117.5 112.48  130.48 99.5  147 99.5  Z " stroke-width="1" stroke="#f2f2f2" fill="none" />
  </g>
</svg>