<?xml version="1.0" encoding="utf-8"?>
<svg version="1.1" xmlns:xlink="http://www.w3.org/1999/xlink" width="12px" height="12px" viewBox="434 393  12 12" xmlns="http://www.w3.org/2000/svg">
  <path d="M 440 393  C 443.36 393  446 395.64  446 399  C 446 402.36  443.36 405  440 405  C 436.64 405  434 402.36  434 399  C 434 395.64  436.64 393  440 393  Z " fill-rule="nonzero" fill="#f0f0f0" stroke="none" />
  <path d="M 440 393.5  C 443.08 393.5  445.5 395.92  445.5 399  C 445.5 402.08  443.08 404.5  440 404.5  C 436.92 404.5  434.5 402.08  434.5 399  C 434.5 395.92  436.92 393.5  440 393.5  Z " stroke-width="1" stroke="#797979" fill="none" />
  <path d="M 440 402  C 438.32 402  437 400.68  437 399  C 437 397.32  438.32 396  440 396  C 441.68 396  443 397.32  443 399  C 443 400.68  441.68 402  440 402  " fill-rule="nonzero" fill="#797979" stroke="none" />
</svg>