<?xml version="1.0" encoding="utf-8"?>
<svg version="1.1" xmlns:xlink="http://www.w3.org/1999/xlink" width="12px" height="12px" viewBox="572 350  12 12" xmlns="http://www.w3.org/2000/svg">
  <path d="M 578 350  C 581.36 350  584 352.64  584 356  C 584 359.36  581.36 362  578 362  C 574.64 362  572 359.36  572 356  C 572 352.64  574.64 350  578 350  Z " fill-rule="nonzero" fill="#ffffff" stroke="none" />
  <path d="M 578 350.5  C 581.08 350.5  583.5 352.92  583.5 356  C 583.5 359.08  581.08 361.5  578 361.5  C 574.92 361.5  572.5 359.08  572.5 356  C 572.5 352.92  574.92 350.5  578 350.5  Z " stroke-width="1" stroke="#797979" fill="none" />
  <path d="M 578 359  C 576.32 359  575 357.68  575 356  C 575 354.32  576.32 353  578 353  C 579.68 353  581 354.32  581 356  C 581 357.68  579.68 359  578 359  " fill-rule="nonzero" fill="#797979" stroke="none" />
</svg>