<?xml version="1.0" encoding="utf-8"?>
<svg version="1.1" xmlns:xlink="http://www.w3.org/1999/xlink" width="12px" height="12px" viewBox="236 1023  12 12" xmlns="http://www.w3.org/2000/svg">
  <path d="M 242 1023  C 245.36 1023  248 1025.64  248 1029  C 248 1032.36  245.36 1035  242 1035  C 238.64 1035  236 1032.36  236 1029  C 236 1025.64  238.64 1023  242 1023  Z " fill-rule="nonzero" fill="#ffffff" stroke="none" />
  <path d="M 242 1023.5  C 245.08 1023.5  247.5 1025.92  247.5 1029  C 247.5 1032.08  245.08 1034.5  242 1034.5  C 238.92 1034.5  236.5 1032.08  236.5 1029  C 236.5 1025.92  238.92 1023.5  242 1023.5  Z " stroke-width="1" stroke="#797979" fill="none" />
  <path d="M 242 1032  C 240.32 1032  239 1030.68  239 1029  C 239 1027.32  240.32 1026  242 1026  C 243.68 1026  245 1027.32  245 1029  C 245 1030.68  243.68 1032  242 1032  " fill-rule="nonzero" fill="#797979" stroke="none" />
</svg>