<?xml version="1.0" encoding="utf-8"?>
<svg version="1.1" xmlns:xlink="http://www.w3.org/1999/xlink" width="12px" height="12px" viewBox="308 1069  12 12" xmlns="http://www.w3.org/2000/svg">
  <path d="M 314 1069  C 317.36 1069  320 1071.64  320 1075  C 320 1078.36  317.36 1081  314 1081  C 310.64 1081  308 1078.36  308 1075  C 308 1071.64  310.64 1069  314 1069  Z " fill-rule="nonzero" fill="#f0f0f0" stroke="none" />
  <path d="M 314 1069.5  C 317.08 1069.5  319.5 1071.92  319.5 1075  C 319.5 1078.08  317.08 1080.5  314 1080.5  C 310.92 1080.5  308.5 1078.08  308.5 1075  C 308.5 1071.92  310.92 1069.5  314 1069.5  Z " stroke-width="1" stroke="#797979" fill="none" />
  <path d="M 314 1078  C 312.32 1078  311 1076.68  311 1075  C 311 1073.32  312.32 1072  314 1072  C 315.68 1072  317 1073.32  317 1075  C 317 1076.68  315.68 1078  314 1078  " fill-rule="nonzero" fill="#797979" stroke="none" />
</svg>