<?xml version="1.0" encoding="utf-8"?>
<svg version="1.1" xmlns:xlink="http://www.w3.org/1999/xlink" width="12px" height="12px" viewBox="236 1069  12 12" xmlns="http://www.w3.org/2000/svg">
  <path d="M 242 1069  C 245.36 1069  248 1071.64  248 1075  C 248 1078.36  245.36 1081  242 1081  C 238.64 1081  236 1078.36  236 1075  C 236 1071.64  238.64 1069  242 1069  Z " fill-rule="nonzero" fill="#ffffff" stroke="none" />
  <path d="M 242 1069.5  C 245.08 1069.5  247.5 1071.92  247.5 1075  C 247.5 1078.08  245.08 1080.5  242 1080.5  C 238.92 1080.5  236.5 1078.08  236.5 1075  C 236.5 1071.92  238.92 1069.5  242 1069.5  Z " stroke-width="1" stroke="#797979" fill="none" />
  <path d="M 242 1078  C 240.32 1078  239 1076.68  239 1075  C 239 1073.32  240.32 1072  242 1072  C 243.68 1072  245 1073.32  245 1075  C 245 1076.68  243.68 1078  242 1078  " fill-rule="nonzero" fill="#797979" stroke="none" />
</svg>